<svg xmlns="http://www.w3.org/2000/svg" viewBox="0 0 560.2 252.669"><rect width="560.2" height="252.669" style="fill:none"/><path d="M211.267,171.275v27.809h-3.229V171.275Z"/><path d="M221.5,178.742v3.112a6.5,6.5,0,0,1,6.185-3.462c4.355,0,6.728,2.84,6.728,8.091v12.6H231.18V186.249c0-3.5-1.322-5.056-4.316-5.056a5.065,5.065,0,0,0-5.369,5.445v12.446h-3.227V178.742Z"/><path d="M241.992,178.742l5.446,17.075,5.329-17.075h3.345l-6.846,20.342h-3.812l-6.962-20.342Z"/><path d="M276.764,195.856c-1.867,2.683-4.473,3.578-7.74,3.578-6.456,0-10.074-4.24-10.074-10.462,0-6.263,3.773-10.58,9.257-10.58,5.407,0,8.713,3.812,8.713,10.113v1.05H262.3c.078,2.917.739,4.551,2.139,5.834a6.335,6.335,0,0,0,4.512,1.361,5.95,5.95,0,0,0,5.445-2.8Zm-3.15-8.907c-.428-4.162-1.984-5.873-5.368-5.873-3.228,0-5.095,1.906-5.834,5.873Z"/><path d="M286.292,178.742v3.112a6.5,6.5,0,0,1,6.185-3.462c4.355,0,6.728,2.84,6.728,8.091v12.6h-3.228V186.249c0-3.5-1.322-5.056-4.318-5.056a5.064,5.064,0,0,0-5.367,5.445v12.446h-3.228V178.742Z"/><path d="M307.568,178.742v-5.29l3.227-.777v6.067h5.135v2.684H310.8v12.407c0,1.984.739,2.917,2.334,2.917a4.21,4.21,0,0,0,2.762-.972L317.135,198a6.208,6.208,0,0,1-4.2,1.439c-3.306,0-5.367-1.906-5.367-4.979V181.426h-3.113v-2.684Z"/><path d="M338.215,195.856c-1.867,2.683-4.473,3.578-7.74,3.578-6.456,0-10.073-4.24-10.073-10.462,0-6.263,3.772-10.58,9.256-10.58,5.407,0,8.712,3.812,8.712,10.113v1.05H323.746c.079,2.917.74,4.551,2.14,5.834a6.332,6.332,0,0,0,4.512,1.361,5.95,5.95,0,0,0,5.445-2.8Zm-3.15-8.907c-.428-4.162-1.984-5.873-5.367-5.873-3.229,0-5.1,1.906-5.834,5.873Z"/><path d="M358.245,195.817a7.582,7.582,0,0,1-6.729,3.617c-5.289,0-8.712-4.161-8.712-10.618,0-6.3,3.462-10.424,8.674-10.424a7.721,7.721,0,0,1,6.767,3.695V169.8h3.228v29.288h-3.228Zm-12.1-6.806c0,5.134,1.944,7.739,5.834,7.739,4.084,0,6.379-2.839,6.379-7.817,0-4.863-2.372-7.857-6.262-7.857C348.288,181.076,346.149,183.954,346.149,189.011Z"/><path d="M382.4,178.742V175.9c0-4.161,2.217-6.534,6.028-6.534a7.119,7.119,0,0,1,3.656.934l-.817,2.489a5.3,5.3,0,0,0-2.684-.739c-1.867,0-2.956,1.323-2.956,3.5v3.189h4.668v2.684h-4.668v17.658H382.4V181.426h-2.918v-2.684Z"/><path d="M411.685,188.894c0,6.145-4.006,10.54-9.646,10.54-5.523,0-9.568-4.434-9.568-10.5,0-6.146,4.006-10.541,9.685-10.541C407.679,178.392,411.685,182.826,411.685,188.894Zm-15.869.078c0,4.784,2.411,7.778,6.223,7.778,3.851,0,6.3-3.033,6.3-7.817,0-4.745-2.45-7.857-6.184-7.857C398.227,181.076,395.816,184.032,395.816,188.972Z"/><path d="M419.658,178.742v3.267c1.323-2.45,3.073-3.617,5.446-3.617a6.506,6.506,0,0,1,3.305.817l-1.322,2.723a4.424,4.424,0,0,0-2.372-.622c-3.15,0-5.057,2.527-5.057,6.611v11.163H416.43V178.742Z"/><path d="M451.123,198.462a6.405,6.405,0,0,1-3.579.934c-2.955,0-4.939-1.324-4.939-5.369V169.8h3.228v24.5c0,1.906,1.012,2.411,2.217,2.411a3.062,3.062,0,0,0,2.023-.661Z"/><path d="M459.563,172.4a2.14,2.14,0,1,1-2.14-2.139A2.158,2.158,0,0,1,459.563,172.4Zm-.467,6.34v20.342h-3.229V178.742Z"/><path d="M467.535,178.742V175.9c0-4.161,2.217-6.534,6.029-6.534a7.119,7.119,0,0,1,3.656.934l-.817,2.489a5.3,5.3,0,0,0-2.684-.739c-1.867,0-2.956,1.323-2.956,3.5v3.189h4.668v2.684h-4.668v17.658h-3.228V181.426h-2.918v-2.684Z"/><path d="M495.5,195.856c-1.867,2.683-4.472,3.578-7.74,3.578-6.456,0-10.073-4.24-10.073-10.462,0-6.263,3.772-10.58,9.257-10.58,5.406,0,8.712,3.812,8.712,10.113v1.05H481.032c.078,2.917.739,4.551,2.139,5.834a6.332,6.332,0,0,0,4.512,1.361,5.949,5.949,0,0,0,5.445-2.8Zm-3.15-8.907c-.428-4.162-1.984-5.873-5.367-5.873-3.229,0-5.1,1.906-5.834,5.873Z"/><path d="M248.8,110.3a13.766,13.766,0,0,0,8.8-13c0-11.7-8.3-17.5-19.7-17.5H208v63.6h32.5c10,0,19.8-7,19.8-17.7C260.3,113,248.8,110.4,248.8,110.3ZM223.6,93h11.6a5.669,5.669,0,0,1,6,6,5.927,5.927,0,0,1-6.3,5.8H223.6V93Zm11.7,37.1H223.6V117.6H235c5.7,0,8.4,2.5,8.4,6.2C243.4,128.4,240,130.1,235.3,130.1Z" style="fill:#ed0007;fill-rule:evenodd"/><path d="M294.7,78.2c-18.4,0-29.2,14.7-29.2,33.3,0,18.7,10.8,33.3,29.2,33.3,18.5,0,29.2-14.6,29.2-33.3C323.9,92.9,313.2,78.2,294.7,78.2Zm0,51.4c-9,0-13.5-8.1-13.5-18.1s4.5-18,13.5-18,13.6,8.1,13.6,18C308.3,121.6,303.7,129.6,294.7,129.6Z" style="fill:#ed0007;fill-rule:evenodd"/><path d="M357.8,104.8l-2.2-.5c-5.4-1.1-9.7-2.5-9.7-6.4,0-4.2,4.1-5.9,7.7-5.9a17.894,17.894,0,0,1,13,5.9l9.9-9.8c-4.5-5.1-11.8-10-23.2-10-13.4,0-23.6,7.5-23.6,20,0,11.4,8.2,17,18.2,19.1l2.2.5c8.3,1.7,11.4,3,11.4,7,0,3.8-3.4,6.3-8.6,6.3-6.2,0-11.8-2.7-16.1-8.2l-10.1,10c5.6,6.7,12.7,11.9,26.4,11.9,11.9,0,24.6-6.8,24.6-20.7C377.9,109.5,366.9,106.7,357.8,104.8Z" style="fill:#ed0007;fill-rule:evenodd"/><path d="M413.3,129.6c-7,0-14.3-5.8-14.3-18.5,0-11.3,6.8-17.6,13.9-17.6,5.6,0,8.9,2.6,11.5,7.1l12.8-8.5c-6.4-9.7-14-13.8-24.5-13.8-19.2,0-29.6,14.9-29.6,32.9,0,18.9,11.5,33.7,29.4,33.7,12.6,0,18.6-4.4,25.1-13.8l-12.9-8.7C422.1,126.6,419.3,129.6,413.3,129.6Z" style="fill:#ed0007;fill-rule:evenodd"/><polygon points="479.9 79.8 479.9 103.2 460.6 103.2 460.6 79.8 443.9 79.8 443.9 143.4 460.6 143.4 460.6 118.3 479.9 118.3 479.9 143.4 496.6 143.4 496.6 79.8 479.9 79.8" style="fill:#ed0007;fill-rule:evenodd"/><path d="M111.8,63.6A48.2,48.2,0,1,0,160,111.8,48.226,48.226,0,0,0,111.8,63.6Zm0,91.9a43.7,43.7,0,1,1,43.7-43.7A43.745,43.745,0,0,1,111.8,155.5Z"/><path d="M131.7,81.7h-3.3V98.2H95.3V81.7H91.9a36.063,36.063,0,0,0,0,60.2h3.4V125.4h33.1v16.5h3.3a36.063,36.063,0,0,0,0-60.2Zm-41,53.7a31.572,31.572,0,0,1,0-47.2Zm37.7-14.6H95.3V102.7h33.1Zm4.5,14.5v-10h0V98.2h0v-10a31.66,31.66,0,0,1,0,47.1Z"/></svg>