<svg width="547" height="170" xmlns="http://www.w3.org/2000/svg" xmlns:xlink="http://www.w3.org/1999/xlink" xml:space="preserve" overflow="hidden"><defs><clipPath id="clip0"><rect x="104" y="274" width="547" height="170"/></clipPath></defs><g clip-path="url(#clip0)" transform="translate(-104 -274)"><path d="M23.9819 0.317992 30.1563 0.317992C44.1914 0.274086 55.6047 11.6162 55.6487 25.6513 55.6487 25.6778 55.6487 25.7043 55.6487 25.7309L55.6487 98.5247C55.6487 102.5 55.8077 117.419 57.7951 122.374 60.1472 128.513 65.0952 133.296 71.3098 135.438L71.3098 169.596C53.5552 168.536 38.3181 156.346 30.6598 138.936 27.2064 130.746 25.241 122.006 24.8564 113.126 24.6441 110.864 24.1455 108.638 23.3724 106.501 19.2856 97.2458 10.1172 91.2792-8.08697e-07 91.2903L0 57.3711C8.40928 57.3727 16.6896 59.4383 24.1144 63.3865L24.1144 0.317992ZM77.2457 0.317992 83.42 0.317992C97.4551 0.317992 108.833 11.6957 108.833 25.7309L108.992 98.5247C108.992 102.5 109.151 117.419 111.112 122.374 113.472 128.461 118.383 133.208 124.547 135.359L124.547 169.596C106.792 168.536 91.5553 156.346 83.897 138.936 78.5971 127.435 78.1201 115.299 77.4047 101.837 77.2722 99.7171 77.1397 0.291493 77.1397 0.291493ZM131.198 0.317992 137.346 0.317992C151.381 0.303357 162.771 11.6692 162.786 25.7044 162.786 25.7132 162.786 25.7221 162.786 25.7309L162.786 61.8495C168.305 58.579 174.601 56.8494 181.017 56.8411 183.194 56.8054 185.371 56.9026 187.536 57.1326L187.536 90.6543 184.674 90.6543C172.882 90.6543 163.316 97.7032 163.316 113.523 163.316 130.059 175.797 136.366 184.674 136.366L188.252 136.366 188.252 169.384C186.688 169.569 182.501 169.649 180.885 169.649 162.15 169.649 145.906 157.3 137.823 139.201 132.523 127.409 131.94 115.352 131.225 101.917 131.225 99.7966 130.96 0.370991 130.96 0.370991Z" fill="#FF7AAB" transform="matrix(1 0 0 1.00034 104 274.014)"/><path d="M239.528 91.7408 211.332 91.7408 211.332 98.6307 221.402 98.6307 221.402 133.848 229.352 133.848 229.352 98.6307 239.024 98.6307C239.422 96.3552 239.635 94.0508 239.66 91.7408ZM270.506 126.932 254.606 126.932 254.606 91.7408 246.656 91.7408 246.656 133.848 269.896 133.848C270.243 131.559 270.429 129.247 270.453 126.932ZM309.433 92.1118C306.728 91.6523 303.99 91.404 301.245 91.3698L286.193 110.317 285.822 110.317 285.822 91.7673 278.243 91.7673 278.243 133.848 285.928 133.848 285.928 120.599 290.036 115.723 302.305 134.272C305.026 134.256 307.74 133.999 310.414 133.504 305.299 124.945 300.37 117.445 294.858 109.946ZM355.41 126.985 338.052 126.985 338.052 115.564 349.792 115.564 349.792 108.806 338.105 108.806 338.105 98.6307 353.846 98.6307C354.185 96.3491 354.373 94.0473 354.403 91.7408L330.288 91.7408 330.288 133.848 354.853 133.848C355.206 131.576 355.41 129.284 355.463 126.985ZM396.033 91.7408 389.037 91.7408 389.037 116.597C389.048 118.289 389.156 119.979 389.355 121.659L388.799 121.659C388.263 120.023 387.59 118.436 386.785 116.915L372.343 91.5553C369.629 91.563 366.921 91.749 364.234 92.1118L364.234 133.848 371.23 133.848 371.23 107.561C371.23 106.236 371.097 104.434 370.912 102.685L371.468 102.685C372.011 104.326 372.685 105.921 373.482 107.455L388.719 134.246C391.168 134.221 393.611 134.035 396.033 133.689ZM432.788 126.985 415.404 126.985 415.404 115.564 427.09 115.564 427.09 108.806 415.404 108.806 415.404 98.6307 431.145 98.6307C431.484 96.3491 431.669 94.0473 431.701 91.7408L407.587 91.7408 407.587 133.848 432.152 133.848C432.512 131.577 432.724 129.284 432.788 126.985ZM471.689 133.424 467.131 124.123C465.533 120.661 463.283 117.539 460.506 114.928 465.332 113.327 468.551 108.774 468.456 103.692 468.456 94.7352 462.069 91.3168 454.464 91.3168 450.094 91.329 445.733 91.621 441.4 92.1913L441.4 133.848 449.032 133.848 449.032 117.233 453.908 117.233C456.468 120.407 458.606 123.898 460.268 127.621L463.394 134.246C466.142 134.224 468.885 133.95 471.583 133.424ZM460.692 104.275C461.025 107.83 458.415 110.984 454.859 111.318 454.393 111.362 453.924 111.355 453.457 111.297L449.217 111.297 449.217 97.8622C450.648 97.8622 452.53 97.6237 454.199 97.6237 457.39 97.1856 460.331 99.4166 460.768 102.606 460.84 103.125 460.84 103.65 460.771 104.169ZM508.549 131.781 508.549 111.562 493.948 111.562C493.959 113.802 494.163 116.036 494.558 118.24L500.838 118.24 500.838 126.852C499.049 127.38 497.192 127.639 495.326 127.621 488.834 127.621 485.097 123.673 485.097 113.046 485.097 100.989 489.337 97.9947 496.201 97.9947 499.744 97.983 503.244 98.7523 506.456 100.247 507.073 97.9109 507.489 95.526 507.701 93.1188 503.878 91.7509 499.839 91.0778 495.777 91.1313 484.647 91.1313 476.724 97.6237 476.724 112.728 476.724 126.799 482.977 134.484 495.273 134.484 499.836 134.469 504.347 133.513 508.523 131.675ZM546.92 92.2178C544.461 91.7843 541.97 91.554 539.474 91.5288L532.531 107.428C532.054 108.594 531.657 109.866 531.286 110.979L530.782 110.979C530.472 109.806 530.083 108.655 529.616 107.534L522.568 91.4228C519.843 91.4538 517.125 91.6841 514.432 92.1118 518.105 101.089 522.236 109.871 526.807 118.426L526.807 133.848 534.625 133.848 534.625 118.426C539.196 109.871 543.325 101.088 547 92.1118Z" fill="#FF7AAB" transform="matrix(1 0 0 1.00034 104 274.014)"/></g></svg>