<svg width="595" height="185" xmlns="http://www.w3.org/2000/svg" xmlns:xlink="http://www.w3.org/1999/xlink" xml:space="preserve" overflow="hidden"><defs><clipPath id="clip0"><rect x="138" y="365" width="595" height="185"/></clipPath></defs><g clip-path="url(#clip0)" transform="translate(-138 -365)"><path d="M26.0864 0.345897 32.8025 0.345897C48.0693 0.298137 60.4841 12.6355 60.5319 27.9022 60.5319 27.9311 60.5319 27.9599 60.5319 27.9888L60.5319 107.17C60.5319 111.494 60.7049 127.722 62.8667 133.113 65.4252 139.79 70.8074 144.992 77.5673 147.323L77.5673 184.478C58.2548 183.325 41.6806 170.066 33.3502 151.128 29.5938 142.219 27.456 132.712 27.0376 123.053 26.8067 120.592 26.2643 118.171 25.4234 115.847 20.978 105.779 11.005 99.2891-8.79661e-07 99.3012L0 62.4055C9.14721 62.4073 18.1542 64.6541 26.2305 68.9487L26.2305 0.345897ZM84.0241 0.345897 90.7402 0.345897C106.007 0.345897 118.383 12.7221 118.383 27.9888L118.556 107.17C118.556 111.494 118.729 127.722 120.862 133.113 123.429 139.734 128.771 144.897 135.476 147.237L135.476 184.478C116.164 183.325 99.5894 170.066 91.2591 151.128 85.4941 138.618 84.9753 125.416 84.197 110.773 84.0529 108.467 83.9088 0.317072 83.9088 0.317072ZM142.711 0.345897 149.399 0.345897C164.665 0.329977 177.054 12.6932 177.07 27.96 177.07 27.9696 177.07 27.9792 177.07 27.9888L177.07 67.2769C183.074 63.7194 189.923 61.838 196.902 61.829 199.27 61.7901 201.638 61.8959 203.993 62.1461L203.993 98.6094 200.88 98.6094C188.053 98.6094 177.647 106.277 177.647 123.485 177.647 141.472 191.223 148.332 200.88 148.332L204.771 148.332 204.771 184.248C203.07 184.449 198.516 184.536 196.758 184.536 176.378 184.536 158.709 171.104 149.917 151.416 144.152 138.589 143.518 125.474 142.74 110.86 142.74 108.554 142.452 0.403546 142.452 0.403546Z" fill="#202B31" transform="matrix(1 0 0 1.00079 138 365.015)"/><path d="M260.547 99.7912 229.877 99.7912 229.877 107.286 240.831 107.286 240.831 145.594 249.478 145.594 249.478 107.286 259.999 107.286C260.432 104.81 260.663 102.304 260.691 99.7912ZM294.243 138.07 276.948 138.07 276.948 99.7912 268.301 99.7912 268.301 145.594 293.58 145.594C293.957 143.103 294.159 140.589 294.185 138.07ZM336.586 100.195C333.643 99.6949 330.666 99.4248 327.679 99.3876L311.307 119.997 310.903 119.997 310.903 99.82 302.66 99.82 302.66 145.594 311.019 145.594 311.019 131.181 315.487 125.878 328.832 146.055C331.793 146.037 334.744 145.758 337.653 145.219 332.09 135.909 326.728 127.751 320.733 119.594ZM386.597 138.128 367.717 138.128 367.717 125.705 380.486 125.705 380.486 118.354 367.775 118.354 367.775 107.286 384.897 107.286C385.266 104.804 385.47 102.3 385.502 99.7912L359.271 99.7912 359.271 145.594 385.992 145.594C386.375 143.122 386.597 140.628 386.655 138.128ZM430.786 99.7912 423.176 99.7912 423.176 126.829C423.187 128.669 423.305 130.507 423.522 132.334L422.916 132.334C422.334 130.555 421.602 128.829 420.726 127.175L405.016 99.5894C402.065 99.5978 399.119 99.8001 396.196 100.195L396.196 145.594 403.806 145.594 403.806 117C403.806 115.558 403.661 113.598 403.46 111.696L404.065 111.696C404.656 113.48 405.388 115.215 406.256 116.884L422.83 146.026C425.493 146 428.151 145.797 430.786 145.421ZM470.765 138.128 451.856 138.128 451.856 125.705 464.568 125.705 464.568 118.354 451.856 118.354 451.856 107.286 468.978 107.286C469.347 104.804 469.549 102.3 469.584 99.7912L443.353 99.7912 443.353 145.594 470.074 145.594C470.466 143.123 470.696 140.629 470.765 138.128ZM513.08 145.132 508.122 135.015C506.384 131.249 503.937 127.854 500.916 125.013 506.165 123.272 509.667 118.319 509.563 112.791 509.563 103.048 502.617 99.33 494.344 99.33 489.591 99.3433 484.846 99.6609 480.133 100.281L480.133 145.594 488.435 145.594 488.435 127.521 493.739 127.521C496.523 130.972 498.849 134.77 500.657 138.82L504.058 146.026C507.047 146.003 510.03 145.704 512.965 145.132ZM501.118 113.425C501.481 117.292 498.642 120.723 494.774 121.087 494.266 121.134 493.756 121.127 493.249 121.064L488.637 121.064 488.637 106.45C490.193 106.45 492.24 106.19 494.056 106.19 497.526 105.714 500.726 108.141 501.201 111.61 501.279 112.174 501.279 112.746 501.204 113.31ZM553.175 143.345 553.175 121.352 537.293 121.352C537.304 123.788 537.526 126.218 537.956 128.616L544.787 128.616 544.787 137.984C542.842 138.558 540.821 138.839 538.792 138.82 531.73 138.82 527.665 134.525 527.665 122.966 527.665 109.851 532.277 106.594 539.743 106.594 543.597 106.581 547.405 107.418 550.898 109.044 551.57 106.503 552.022 103.909 552.253 101.29 548.094 99.8021 543.701 99.07 539.282 99.1282 527.175 99.1282 518.557 106.19 518.557 122.62 518.557 137.926 525.359 146.285 538.734 146.285 543.698 146.269 548.604 145.229 553.146 143.23ZM594.914 100.31C592.239 99.8385 589.529 99.588 586.814 99.5606L579.262 116.855C578.743 118.124 578.31 119.507 577.907 120.718L577.359 120.718C577.022 119.441 576.598 118.189 576.091 116.971L568.424 99.4453C565.46 99.479 562.503 99.7295 559.574 100.195 563.57 109.959 568.063 119.513 573.036 128.818L573.036 145.594 581.539 145.594 581.539 128.818C586.511 119.512 591.002 109.959 595 100.195Z" fill="#202B31" transform="matrix(1 0 0 1.00079 138 365.015)"/></g></svg>