<?xml version="1.0" encoding="UTF-8" standalone="no"?>
<!-- Generator: Adobe Illustrator 16.0.3, SVG Export Plug-In . SVG Version: 6.00 Build 0)  -->

<svg
   version="1.1"
   id="Ebene_1"
   x="0px"
   y="0px"
   width="606.466"
   height="48.252995"
   viewBox="0 0 606.46599 48.252992"
   enable-background="new 0 0 841.89 595.28"
   xml:space="preserve"
   sodipodi:docname="EBCCenterLogo.svg"
   inkscape:version="1.1.2 (b8e25be833, 2022-02-05)"
   xmlns:inkscape="http://www.inkscape.org/namespaces/inkscape"
   xmlns:sodipodi="http://sodipodi.sourceforge.net/DTD/sodipodi-0.dtd"
   xmlns="http://www.w3.org/2000/svg"
   xmlns:svg="http://www.w3.org/2000/svg"><defs
   id="defs605" /><sodipodi:namedview
   id="namedview603"
   pagecolor="#ffffff"
   bordercolor="#666666"
   borderopacity="1.0"
   inkscape:pageshadow="2"
   inkscape:pageopacity="0.0"
   inkscape:pagecheckerboard="0"
   showgrid="false"
   inkscape:zoom="1.3136675"
   inkscape:cx="319.335"
   inkscape:cy="60.136985"
   inkscape:window-width="5160"
   inkscape:window-height="2066"
   inkscape:window-x="-5171"
   inkscape:window-y="-11"
   inkscape:window-maximized="1"
   inkscape:current-layer="Ebene_1" />
<rect
   x="273.69199"
   y="-21.294998"
   fill="#ffffff"
   width="345.94501"
   height="90.709"
   id="rect428" />
<g
   id="g434"
   transform="translate(-100.967,-237.589)">
	<path
   fill="#9d9d9c"
   d="m 646.788,283.146 h 4.346 v -9.113 h 2.322 c 1.75,0 2.506,1.027 2.566,2.717 l 0.121,4.135 c 0.029,0.844 0.119,1.658 0.543,2.262 h 4.707 v -0.18 c -0.814,-0.424 -0.936,-1.6 -0.967,-3.863 -0.059,-4.557 -0.512,-6.188 -3.469,-6.578 v -0.061 c 2.443,-0.514 3.59,-2.443 3.59,-5.311 0,-3.682 -2.172,-5.553 -5.732,-5.553 h -8.027 z m 4.346,-18.346 h 2.053 c 1.961,0 3.018,0.996 3.018,2.986 0,2.324 -1.178,3.229 -3.26,3.229 h -1.811 z"
   id="path430" />
	<path
   fill="#9d9d9c"
   d="m 582.726,261.601 v 15.027 c 0,5.764 3.35,6.941 6.879,6.941 3.531,0 6.881,-1.449 6.881,-6.941 v -15.027 h -4.346 v 15.027 c 0,2.143 -0.512,3.742 -2.535,3.742 -2.021,0 -2.533,-1.6 -2.533,-3.742 v -15.027 z"
   id="path432" />
</g>
<polygon
   fill="#9d9d9c"
   points="601.532,283.146 601.532,268.058 601.593,268.058 606.903,283.146 611.853,283.146 611.853,261.601 607.868,261.601 607.868,276.356 607.81,276.356 602.558,261.601 597.55,261.601 597.55,283.146 "
   id="polygon436"
   transform="translate(-100.967,-237.589)" />
<rect
   x="512.00299"
   y="24.012009"
   fill="#9d9d9c"
   width="4.3439999"
   height="21.545"
   id="rect438" />
<polygon
   fill="#9d9d9c"
   points="628.144,283.146 633.091,261.601 628.597,261.601 625.397,277.534 625.308,277.534 622.259,261.601 617.612,261.601 622.562,283.146 "
   id="polygon440"
   transform="translate(-100.967,-237.589)" />
<polygon
   fill="#9d9d9c"
   points="645.821,283.146 645.821,279.585 637.825,279.585 637.825,273.792 645.067,273.792 645.067,270.229 637.825,270.229 637.825,265.161 645.519,265.161 645.519,261.601 633.479,261.601 633.479,283.146 "
   id="polygon442"
   transform="translate(-100.967,-237.589)" />
<g
   id="g446"
   transform="translate(-100.967,-237.589)">
	<path
   fill="#9d9d9c"
   d="m 660.909,276.417 v 0.875 c 0,3.984 1.932,6.277 6.85,6.277 4.707,0 7.482,-2.053 7.482,-6.609 0,-2.625 -0.844,-4.285 -4.104,-5.703 l -3.35,-1.447 c -1.84,-0.785 -2.232,-1.6 -2.232,-2.928 0,-1.268 0.514,-2.506 2.475,-2.506 1.658,0 2.354,1.178 2.354,3.199 h 4.164 v -0.604 c 0,-4.135 -2.807,-5.793 -6.668,-5.793 -4.105,0 -6.67,2.143 -6.67,6.336 0,3.592 1.781,5.191 5.643,6.518 2.867,0.996 3.863,1.721 3.863,3.682 0,1.811 -1.268,2.656 -2.596,2.656 -2.293,0 -2.865,-1.297 -2.865,-3.32 v -0.633 z"
   id="path444" />
</g>
<rect
   x="574.84302"
   y="24.012009"
   fill="#9d9d9c"
   width="4.3460002"
   height="21.545"
   id="rect448" />
<polygon
   fill="#9d9d9c"
   points="699.647,269.929 696.812,261.601 680.726,261.601 680.726,265.161 685.433,265.161 685.433,283.146 689.778,283.146 689.778,265.161 693.442,265.161 697.503,274.667 697.503,283.146 701.851,283.146 701.851,274.667 707.433,261.601 702.726,261.601 699.706,269.929 "
   id="polygon450"
   transform="translate(-100.967,-237.589)" />
<g
   id="g456"
   transform="translate(-100.967,-237.589)">
	<path
   d="m 544.554,259.641 h -0.275 -6.924 V 257.203 238.16 238 h 6.91 0.014 4.883 c 3.201,-0.001 5.963,2.071 6.863,4.819 0.834,2.547 0.121,5.313 -1.76,7.281 0.25,0.678 0.494,1.209 0.725,1.818 0.523,1.205 1.002,2.41 1.525,3.6 l 1.713,4.122 h -0.045 -7.256 c 0,0.005 -0.059,-0.174 -0.117,-0.247 -0.289,-0.638 -0.551,-1.32 -0.842,-1.959 l -1.756,-4.166 c -0.697,-1.684 -1.395,-3.275 -2.09,-4.957 0.869,-0.025 1.52,0.139 2.357,-0.248 0.59,-0.289 1.484,-1.011 1.508,-2.394 -0.023,-0.685 -0.213,-1.204 -0.666,-1.744 -0.455,-0.502 -1.113,-0.874 -1.971,-0.886 0,0 -2.797,-10e-4 -2.797,0 v 16.602 z"
   id="path452" />
	<path
   d="m 619.759,237.999 v 21.642 h -5.621 -1.578 v -8.824 h -0.672 -4.311 -0.059 v 8.824 c -1.307,0 -2.715,-0.015 -4.02,0 h -3.18 v -16.634 h -5.037 v 0.523 1.566 7.127 7.417 h -0.057 -7.143 v -8.97 -0.348 -7.316 h -5.08 v 7.853 8.781 h -7.416 c -1.293,-3.12 -2.656,-6.271 -3.92,-9.376 -0.145,-0.653 -0.289,-1.307 -0.479,-1.945 v 11.321 h -7.432 c -1.473,-3.425 -2.889,-6.782 -4.357,-10.259 -0.508,-1.203 -0.926,-2.184 -1.451,-3.436 l -0.072,-0.164 -1.145,-2.685 -1.639,-3.835 c -0.143,-0.436 -0.375,-0.828 -0.521,-1.264 h 7.416 c 1.523,3.701 3.061,7.359 4.658,11.002 l 0.045,0.088 c -0.059,-0.422 -0.191,-0.959 -0.264,-1.364 v -6.459 c 0.016,-1.031 0,-2.207 0,-3.267 h 7.432 c 0.094,0.236 0.146,0.363 0.219,0.553 0.871,2.046 1.699,4.078 2.57,6.109 l 1.943,4.428 c -0.043,-0.465 -0.145,-0.914 -0.203,-1.364 v -9.726 h 0.596 5.051 18.289 5.195 v 1.351 6.459 h 0.35 4.691 v -7.81 h 3.756 3.446 z"
   id="path454" />
</g>
<path
   fill="#9d9d9c"
   d="m 539.677,13.896995 2.094,-9.7289995 h 0.059 l 2.092,9.7289995 z m -14.426,0 2.09,-9.7289995 h 0.061 l 2.092,9.7289995 z M 544.497,0.40799548 h -5.396 L 534.585,17.467995 530.069,0.40799548 h -5.396 L 518.944,22.051995 h 4.547 l 1,-4.577 h 5.762 l 0.998,4.577 h 6.668 l 1,-4.577 h 5.76 l 1,4.577 h 4.547 z"
   id="path458" />
<g
   id="g462"
   transform="translate(-100.967,-237.589)">
	<path
   fill="#9d9d9c"
   d="m 664.192,245.382 c 0,-3.137 -0.451,-7.694 -6.668,-7.694 -6.518,0 -7.334,4.647 -7.334,11.194 0,6.549 0.816,11.195 7.334,11.195 5.703,0 6.85,-4.013 6.85,-8.66 h -4.346 c 0,4.647 -1.146,5.463 -2.715,5.463 -1.871,0 -2.777,-1.178 -2.777,-7.695 0,-6.096 0.514,-8.299 2.717,-8.299 1.961,0 2.596,1.359 2.596,4.496 z"
   id="path460" />
</g>
<polygon
   fill="#9d9d9c"
   points="669.597,250.032 674.688,250.032 674.688,259.641 679.054,259.641 679.054,238 674.688,238 674.688,246.274 669.597,246.274 669.597,238 665.231,238 665.231,259.641 669.597,259.641 "
   id="polygon464"
   transform="translate(-100.967,-237.589)" />
<polygon
   fill="#9d9d9c"
   points="692.399,259.641 692.399,256.063 684.366,256.063 684.366,250.243 691.642,250.243 691.642,246.665 684.366,246.665 684.366,241.573 692.095,241.573 692.095,237.995 679.999,237.995 679.999,259.641 "
   id="polygon466"
   transform="translate(-100.967,-237.589)" />
<polygon
   fill="#9d9d9c"
   points="697.048,259.641 697.048,244.485 697.108,244.485 702.442,259.641 707.413,259.641 707.413,238 703.413,238 703.413,252.821 703.353,252.821 698.077,238 693.048,238 693.048,259.641 "
   id="polygon468"
   transform="translate(-100.967,-237.589)" />
<rect
   x="421.71298"
   y="0.3809967"
   width="1"
   height="45.355"
   id="rect470" />
<rect
   x="330.84"
   y="0.38299561"
   fill="#e63323"
   width="35.229"
   height="5.2459998"
   id="rect472" />
<rect
   x="330.84"
   y="12"
   fill="#e63323"
   width="35.229"
   height="5.2459998"
   id="rect474" />
<rect
   x="330.84"
   y="23.616989"
   fill="#e63323"
   width="35.229"
   height="5.2480001"
   id="rect476" />
<rect
   x="372.811"
   y="0.38299561"
   fill="#e63323"
   width="35.229"
   height="5.2459998"
   id="rect478" />
<rect
   x="372.811"
   y="12"
   fill="#e63323"
   width="35.229"
   height="5.2459998"
   id="rect480" />
<rect
   x="288.866"
   y="0.38299561"
   fill="#e63323"
   width="35.229"
   height="28.482"
   id="rect482" />
<g
   id="g486"
   transform="translate(-100.967,-237.589)">
	<path
   fill="#e63323"
   d="m 506.092,283.343 h 1.422 v -3.328 c 0,-0.186 0.031,-0.342 0.092,-0.471 0.063,-0.127 0.145,-0.229 0.248,-0.309 0.104,-0.078 0.216,-0.135 0.34,-0.17 0.123,-0.033 0.247,-0.051 0.371,-0.051 0.075,0 0.148,0.002 0.221,0.006 0.072,0.002 0.146,0.008 0.223,0.014 v -1.359 c -0.041,-0.008 -0.084,-0.012 -0.129,-0.016 -0.045,-0.004 -0.088,-0.006 -0.129,-0.006 -0.295,0 -0.547,0.082 -0.752,0.244 -0.207,0.16 -0.381,0.375 -0.526,0.643 h -0.021 v -0.74 h -1.359 v 5.543 z m -3.592,-3.401 v -0.217 c 0,-0.131 0.012,-0.26 0.035,-0.393 0.024,-0.129 0.064,-0.248 0.119,-0.354 0.055,-0.107 0.129,-0.193 0.221,-0.258 0.094,-0.066 0.213,-0.1 0.356,-0.1 0.143,0 0.263,0.029 0.354,0.088 0.094,0.059 0.166,0.145 0.217,0.258 0.052,0.113 0.088,0.252 0.109,0.412 0.021,0.162 0.033,0.35 0.041,0.563 H 502.5 Z m 2.813,0.844 v -0.318 c 0,-0.426 -0.027,-0.813 -0.082,-1.16 -0.055,-0.346 -0.158,-0.643 -0.309,-0.887 -0.151,-0.242 -0.359,-0.432 -0.625,-0.566 -0.264,-0.133 -0.602,-0.201 -1.014,-0.201 -0.482,0 -0.865,0.08 -1.154,0.238 -0.289,0.158 -0.51,0.371 -0.666,0.639 -0.153,0.268 -0.256,0.574 -0.309,0.918 -0.051,0.342 -0.076,0.699 -0.076,1.07 0,0.344 0.016,0.693 0.045,1.047 0.031,0.354 0.115,0.674 0.254,0.959 0.137,0.285 0.35,0.516 0.639,0.695 0.287,0.178 0.689,0.268 1.206,0.268 0.68,0 1.178,-0.174 1.493,-0.52 0.316,-0.348 0.488,-0.844 0.516,-1.49 h -1.277 c -0.041,0.35 -0.117,0.611 -0.228,0.783 -0.108,0.172 -0.285,0.258 -0.524,0.258 -0.132,0 -0.242,-0.037 -0.33,-0.109 -0.09,-0.072 -0.162,-0.168 -0.217,-0.287 -0.055,-0.121 -0.095,-0.258 -0.119,-0.412 -0.023,-0.154 -0.035,-0.314 -0.035,-0.48 v -0.443 h 2.812 z m -6.856,-2.986 h -0.723 v 0.967 h 0.723 v 3.174 c 0,0.283 0.017,0.516 0.051,0.701 0.033,0.186 0.098,0.336 0.19,0.449 0.092,0.113 0.226,0.193 0.396,0.242 0.173,0.047 0.4,0.072 0.682,0.072 0.164,0 0.321,-0.008 0.469,-0.021 0.148,-0.013 0.301,-0.027 0.459,-0.041 v -0.988 c -0.049,0.006 -0.101,0.012 -0.156,0.014 -0.055,0.004 -0.109,0.006 -0.164,0.006 -0.207,0 -0.342,-0.047 -0.406,-0.139 -0.066,-0.094 -0.098,-0.25 -0.098,-0.469 v -3 h 0.824 V 277.8 h -0.824 v -1.588 h -1.422 v 1.588 z m -5.502,5.543 h 1.422 v -3.68 c 0,-0.609 0.25,-0.916 0.752,-0.916 0.213,0 0.367,0.057 0.463,0.17 0.097,0.113 0.145,0.314 0.145,0.604 v 3.822 h 1.422 v -4.111 c 0,-0.557 -0.121,-0.959 -0.365,-1.207 -0.244,-0.246 -0.592,-0.371 -1.047,-0.371 -0.309,0 -0.584,0.064 -0.824,0.191 -0.24,0.127 -0.437,0.328 -0.588,0.604 h -0.02 V 277.8 h -1.359 v 5.543 z m -3.593,-3.401 v -0.217 c 0,-0.131 0.013,-0.26 0.036,-0.393 0.023,-0.129 0.064,-0.248 0.119,-0.354 0.055,-0.107 0.129,-0.193 0.221,-0.258 0.094,-0.066 0.213,-0.1 0.355,-0.1 0.145,0 0.264,0.029 0.355,0.088 0.094,0.059 0.165,0.145 0.217,0.258 0.051,0.113 0.088,0.252 0.108,0.412 0.021,0.162 0.034,0.35 0.041,0.563 h -1.452 z m 2.814,0.844 v -0.318 c 0,-0.426 -0.027,-0.813 -0.082,-1.16 -0.055,-0.346 -0.158,-0.643 -0.309,-0.887 -0.152,-0.242 -0.359,-0.432 -0.625,-0.566 -0.264,-0.133 -0.602,-0.201 -1.015,-0.201 -0.481,0 -0.865,0.08 -1.153,0.238 -0.289,0.158 -0.511,0.371 -0.664,0.639 -0.156,0.268 -0.259,0.574 -0.311,0.918 -0.051,0.342 -0.077,0.699 -0.077,1.07 0,0.344 0.017,0.693 0.046,1.047 0.031,0.354 0.115,0.674 0.253,0.959 0.138,0.285 0.351,0.516 0.64,0.695 0.287,0.178 0.689,0.268 1.205,0.268 0.681,0 1.179,-0.174 1.494,-0.52 0.316,-0.348 0.488,-0.844 0.516,-1.49 h -1.278 c -0.041,0.35 -0.117,0.611 -0.226,0.783 -0.11,0.172 -0.287,0.258 -0.526,0.258 -0.131,0 -0.241,-0.037 -0.33,-0.109 -0.089,-0.072 -0.161,-0.168 -0.216,-0.287 -0.055,-0.121 -0.096,-0.258 -0.119,-0.412 -0.023,-0.154 -0.036,-0.314 -0.036,-0.48 v -0.443 h 2.813 z m -4.949,-2.316 c 0,-0.27 -0.02,-0.557 -0.057,-0.861 -0.037,-0.307 -0.133,-0.592 -0.283,-0.855 -0.151,-0.266 -0.381,-0.482 -0.686,-0.654 -0.306,-0.172 -0.723,-0.258 -1.252,-0.258 -0.557,0 -1,0.094 -1.33,0.283 -0.33,0.189 -0.582,0.451 -0.757,0.787 -0.175,0.338 -0.289,0.742 -0.34,1.211 -0.052,0.473 -0.078,0.984 -0.078,1.541 0,0.557 0.026,1.07 0.078,1.541 0.051,0.471 0.165,0.875 0.34,1.211 0.175,0.336 0.427,0.6 0.757,0.789 0.33,0.189 0.773,0.283 1.33,0.283 0.487,0 0.885,-0.08 1.19,-0.238 0.305,-0.156 0.543,-0.371 0.711,-0.643 0.168,-0.272 0.282,-0.586 0.345,-0.943 0.063,-0.357 0.094,-0.734 0.094,-1.133 h -1.484 c 0,0.398 -0.024,0.719 -0.072,0.963 -0.048,0.244 -0.113,0.434 -0.195,0.566 -0.082,0.135 -0.181,0.223 -0.295,0.268 -0.113,0.045 -0.234,0.068 -0.365,0.068 -0.158,0 -0.297,-0.033 -0.418,-0.1 -0.119,-0.064 -0.22,-0.191 -0.299,-0.381 -0.078,-0.188 -0.137,-0.455 -0.175,-0.799 -0.038,-0.342 -0.058,-0.793 -0.058,-1.35 0,-0.521 0.015,-0.963 0.043,-1.324 0.027,-0.361 0.074,-0.652 0.144,-0.875 0.068,-0.223 0.163,-0.385 0.283,-0.484 0.12,-0.099 0.272,-0.15 0.459,-0.15 0.336,0 0.567,0.123 0.694,0.367 0.129,0.242 0.191,0.633 0.191,1.17 z m -12.19,4.873 h 1.422 v -3.68 c 0,-0.609 0.25,-0.916 0.752,-0.916 0.213,0 0.367,0.057 0.465,0.17 0.096,0.113 0.144,0.314 0.144,0.604 v 3.822 h 1.423 v -4.111 c 0,-0.557 -0.123,-0.959 -0.367,-1.207 -0.244,-0.246 -0.592,-0.371 -1.045,-0.371 -0.625,0 -1.076,0.238 -1.351,0.713 h -0.021 v -2.381 h -1.422 z m -0.765,-3.545 c 0,-0.66 -0.167,-1.182 -0.5,-1.566 -0.333,-0.384 -0.829,-0.578 -1.489,-0.578 -0.33,0 -0.632,0.045 -0.906,0.135 -0.275,0.09 -0.513,0.246 -0.711,0.469 -0.199,0.225 -0.354,0.521 -0.465,0.896 -0.109,0.375 -0.164,0.848 -0.164,1.418 0,0.555 0.045,1.021 0.133,1.396 0.09,0.375 0.223,0.674 0.397,0.896 0.174,0.222 0.396,0.383 0.66,0.479 0.264,0.096 0.575,0.145 0.933,0.145 0.756,0 1.297,-0.197 1.623,-0.588 0.326,-0.391 0.489,-0.951 0.489,-1.68 h -1.36 c 0,0.453 -0.055,0.783 -0.164,0.988 -0.11,0.207 -0.285,0.311 -0.526,0.311 -0.158,0 -0.287,-0.037 -0.386,-0.109 -0.101,-0.072 -0.178,-0.186 -0.232,-0.344 -0.054,-0.158 -0.094,-0.359 -0.113,-0.604 -0.021,-0.244 -0.031,-0.537 -0.031,-0.881 0,-0.316 0.01,-0.594 0.031,-0.836 0.02,-0.24 0.059,-0.438 0.113,-0.592 0.054,-0.154 0.136,-0.27 0.242,-0.35 0.107,-0.078 0.248,-0.119 0.428,-0.119 0.13,0 0.238,0.033 0.324,0.098 0.086,0.066 0.15,0.152 0.195,0.258 0.045,0.107 0.076,0.227 0.094,0.361 0.017,0.133 0.025,0.266 0.025,0.396 h 1.36 z m -7.553,3.545 h 1.423 v -3.328 c 0,-0.186 0.03,-0.342 0.093,-0.471 0.063,-0.127 0.145,-0.229 0.248,-0.309 0.104,-0.078 0.216,-0.135 0.34,-0.17 0.123,-0.033 0.247,-0.051 0.371,-0.051 0.075,0 0.148,0.002 0.221,0.006 0.072,0.002 0.146,0.008 0.223,0.014 v -1.359 c -0.041,-0.008 -0.084,-0.012 -0.129,-0.016 -0.045,-0.004 -0.088,-0.006 -0.129,-0.006 -0.295,0 -0.547,0.082 -0.752,0.244 -0.207,0.16 -0.381,0.375 -0.526,0.643 h -0.021 v -0.74 h -1.361 v 5.543 z m -2.346,-1.68 c 0,0.158 -0.027,0.289 -0.082,0.396 -0.056,0.107 -0.125,0.193 -0.211,0.264 -0.086,0.068 -0.181,0.117 -0.283,0.148 -0.104,0.031 -0.203,0.047 -0.299,0.047 -0.192,0 -0.33,-0.076 -0.412,-0.227 -0.084,-0.15 -0.125,-0.334 -0.125,-0.547 0,-0.248 0.063,-0.443 0.187,-0.588 0.123,-0.143 0.329,-0.246 0.618,-0.309 0.089,-0.021 0.189,-0.053 0.299,-0.098 0.11,-0.045 0.213,-0.105 0.309,-0.18 v 1.094 z m -1.318,-2.164 v -0.154 c 0,-0.221 0.055,-0.395 0.164,-0.525 0.111,-0.131 0.275,-0.197 0.494,-0.197 0.242,0 0.412,0.061 0.512,0.182 0.099,0.121 0.148,0.287 0.148,0.5 0,0.186 -0.041,0.326 -0.123,0.422 -0.082,0.096 -0.23,0.172 -0.443,0.227 l -0.805,0.217 c -0.246,0.068 -0.457,0.148 -0.633,0.236 -0.176,0.09 -0.32,0.201 -0.433,0.336 -0.114,0.133 -0.198,0.295 -0.253,0.484 -0.055,0.188 -0.082,0.414 -0.082,0.674 0,0.186 0.023,0.373 0.072,0.563 0.048,0.189 0.123,0.359 0.227,0.51 0.104,0.151 0.24,0.275 0.412,0.371 0.172,0.096 0.381,0.145 0.629,0.145 0.344,0 0.623,-0.049 0.839,-0.145 0.218,-0.096 0.408,-0.289 0.572,-0.576 h 0.021 c 0.021,0.096 0.043,0.193 0.067,0.293 0.024,0.1 0.06,0.193 0.108,0.283 h 1.359 c -0.068,-0.164 -0.115,-0.32 -0.139,-0.465 -0.023,-0.143 -0.036,-0.346 -0.036,-0.607 v -2.916 c 0,-0.248 -0.024,-0.477 -0.077,-0.686 -0.052,-0.209 -0.148,-0.389 -0.294,-0.541 -0.144,-0.15 -0.348,-0.268 -0.612,-0.35 -0.264,-0.082 -0.606,-0.125 -1.025,-0.125 -0.268,0 -0.521,0.031 -0.758,0.088 -0.237,0.059 -0.443,0.156 -0.618,0.289 -0.175,0.135 -0.313,0.313 -0.417,0.531 -0.104,0.218 -0.155,0.488 -0.155,0.803 v 0.135 h 1.279 z m -4.82,0.443 v -0.217 c 0,-0.131 0.013,-0.26 0.036,-0.393 0.023,-0.129 0.064,-0.248 0.119,-0.354 0.055,-0.107 0.129,-0.193 0.221,-0.258 0.094,-0.066 0.212,-0.1 0.355,-0.1 0.145,0 0.264,0.029 0.355,0.088 0.094,0.059 0.165,0.145 0.217,0.258 0.051,0.113 0.088,0.252 0.108,0.412 0.021,0.162 0.034,0.35 0.041,0.563 h -1.452 z m 2.814,0.844 v -0.318 c 0,-0.426 -0.027,-0.813 -0.082,-1.16 -0.055,-0.346 -0.158,-0.643 -0.309,-0.887 -0.152,-0.242 -0.359,-0.432 -0.623,-0.566 -0.266,-0.133 -0.604,-0.201 -1.017,-0.201 -0.481,0 -0.865,0.08 -1.154,0.238 -0.288,0.158 -0.51,0.371 -0.663,0.639 -0.156,0.268 -0.259,0.574 -0.311,0.918 -0.051,0.342 -0.077,0.699 -0.077,1.07 0,0.344 0.017,0.693 0.046,1.047 0.031,0.354 0.115,0.674 0.253,0.959 0.138,0.285 0.351,0.516 0.64,0.695 0.287,0.178 0.689,0.268 1.205,0.268 0.681,0 1.178,-0.174 1.494,-0.52 0.316,-0.348 0.488,-0.844 0.516,-1.49 h -1.278 c -0.041,0.35 -0.117,0.611 -0.226,0.783 -0.11,0.172 -0.287,0.258 -0.526,0.258 -0.131,0 -0.241,-0.037 -0.33,-0.109 -0.089,-0.072 -0.161,-0.168 -0.216,-0.287 -0.055,-0.121 -0.096,-0.258 -0.119,-0.412 -0.023,-0.154 -0.036,-0.314 -0.036,-0.48 v -0.443 h 2.813 z m -8.887,0.742 v 0.197 c 0,0.268 0.03,0.51 0.092,0.727 0.063,0.215 0.17,0.4 0.326,0.557 0.153,0.154 0.361,0.271 0.623,0.355 0.26,0.082 0.594,0.123 1,0.123 0.295,0 0.569,-0.037 0.823,-0.109 0.254,-0.07 0.474,-0.18 0.655,-0.324 0.181,-0.144 0.324,-0.326 0.427,-0.545 0.103,-0.221 0.155,-0.475 0.155,-0.764 0,-0.418 -0.094,-0.75 -0.278,-0.994 -0.187,-0.244 -0.502,-0.441 -0.948,-0.592 l -0.855,-0.289 c -0.24,-0.076 -0.403,-0.168 -0.489,-0.277 -0.086,-0.111 -0.129,-0.234 -0.129,-0.371 0,-0.199 0.067,-0.35 0.201,-0.449 0.134,-0.099 0.29,-0.15 0.469,-0.15 0.233,0 0.397,0.068 0.489,0.201 0.093,0.135 0.139,0.346 0.139,0.635 h 1.278 v -0.227 c 0,-0.502 -0.154,-0.889 -0.464,-1.164 -0.309,-0.275 -0.786,-0.414 -1.432,-0.414 -0.365,0 -0.676,0.045 -0.933,0.135 -0.259,0.09 -0.47,0.209 -0.634,0.361 -0.165,0.15 -0.285,0.328 -0.361,0.531 -0.076,0.203 -0.113,0.416 -0.113,0.643 0,0.393 0.1,0.713 0.299,0.963 0.199,0.252 0.494,0.445 0.887,0.584 l 0.999,0.359 c 0.138,0.055 0.258,0.129 0.36,0.223 0.104,0.092 0.155,0.229 0.155,0.406 0,0.221 -0.065,0.385 -0.196,0.496 -0.131,0.109 -0.306,0.164 -0.525,0.164 -0.24,0 -0.424,-0.074 -0.551,-0.223 -0.127,-0.146 -0.191,-0.342 -0.191,-0.58 v -0.188 z m -3.359,-1.586 v -0.217 c 0,-0.131 0.012,-0.26 0.035,-0.393 0.024,-0.129 0.064,-0.248 0.119,-0.354 0.056,-0.107 0.129,-0.193 0.221,-0.258 0.094,-0.066 0.212,-0.1 0.357,-0.1 0.143,0 0.262,0.029 0.354,0.088 0.092,0.059 0.165,0.145 0.217,0.258 0.052,0.113 0.087,0.252 0.108,0.412 0.02,0.162 0.033,0.35 0.041,0.563 h -1.452 z m 2.812,0.844 v -0.318 c 0,-0.426 -0.027,-0.813 -0.082,-1.16 -0.055,-0.346 -0.158,-0.643 -0.309,-0.887 -0.151,-0.242 -0.359,-0.432 -0.624,-0.566 -0.265,-0.133 -0.603,-0.201 -1.015,-0.201 -0.481,0 -0.865,0.08 -1.154,0.238 -0.289,0.158 -0.51,0.371 -0.665,0.639 -0.154,0.268 -0.257,0.574 -0.31,0.918 -0.051,0.342 -0.076,0.699 -0.076,1.07 0,0.344 0.015,0.693 0.045,1.047 0.031,0.354 0.115,0.674 0.254,0.959 0.137,0.285 0.35,0.516 0.639,0.695 0.288,0.178 0.689,0.268 1.205,0.268 0.682,0 1.18,-0.174 1.495,-0.52 0.315,-0.348 0.487,-0.844 0.515,-1.49 h -1.277 c -0.041,0.35 -0.117,0.611 -0.228,0.783 -0.111,0.172 -0.284,0.258 -0.524,0.258 -0.131,0 -0.241,-0.037 -0.33,-0.109 -0.09,-0.072 -0.161,-0.168 -0.217,-0.287 -0.055,-0.121 -0.095,-0.258 -0.119,-0.412 -0.023,-0.154 -0.035,-0.314 -0.035,-0.48 v -0.443 h 2.812 z m -8.205,-3.709 h 0.7 c 0.687,0 1.031,0.34 1.031,1.021 0,0.396 -0.097,0.68 -0.289,0.85 -0.192,0.168 -0.468,0.252 -0.824,0.252 h -0.618 z m -1.484,6.266 h 1.484 v -3.111 h 0.783 c 0.307,0 0.523,0.082 0.652,0.246 0.129,0.166 0.199,0.393 0.214,0.68 l 0.04,1.412 c 0.007,0.145 0.021,0.283 0.042,0.418 0.021,0.133 0.069,0.252 0.146,0.355 h 1.627 v -0.063 c -0.138,-0.074 -0.226,-0.215 -0.264,-0.422 -0.038,-0.207 -0.061,-0.504 -0.066,-0.896 -0.008,-0.393 -0.025,-0.721 -0.057,-0.988 -0.031,-0.27 -0.088,-0.49 -0.17,-0.666 -0.083,-0.174 -0.199,-0.309 -0.352,-0.402 -0.15,-0.092 -0.354,-0.156 -0.607,-0.189 v -0.021 c 0.419,-0.088 0.729,-0.289 0.928,-0.602 0.199,-0.314 0.299,-0.717 0.299,-1.213 0,-0.639 -0.172,-1.113 -0.516,-1.426 -0.343,-0.313 -0.824,-0.469 -1.441,-0.469 h -2.742 z m -6.986,1.814 h 0.577 c 0.33,0 0.604,-0.025 0.82,-0.072 0.215,-0.049 0.4,-0.15 0.556,-0.305 0.156,-0.155 0.31,-0.43 0.464,-0.824 0.154,-0.394 0.252,-0.723 0.293,-0.984 l 1.34,-5.172 h -1.422 l -0.721,3.832 h -0.021 l -0.824,-3.832 h -1.483 l 1.556,5.543 c -0.021,0.248 -0.088,0.439 -0.201,0.576 -0.113,0.139 -0.301,0.207 -0.562,0.207 -0.123,0 -0.247,-0.01 -0.371,-0.031 v 1.062 z m -2.391,-7.357 v 0.617 h -0.02 c -0.138,-0.289 -0.313,-0.488 -0.525,-0.598 -0.212,-0.11 -0.42,-0.166 -0.619,-0.166 -0.385,0 -0.691,0.086 -0.922,0.258 -0.231,0.172 -0.405,0.395 -0.525,0.666 -0.12,0.271 -0.199,0.574 -0.236,0.912 -0.039,0.336 -0.058,0.666 -0.058,0.988 0,1.01 0.144,1.73 0.428,2.16 0.285,0.428 0.709,0.643 1.272,0.643 0.227,0 0.445,-0.061 0.654,-0.184 0.211,-0.125 0.387,-0.289 0.531,-0.496 h 0.02 v 0.732 c 0,0.287 -0.057,0.527 -0.174,0.717 -0.117,0.188 -0.319,0.281 -0.608,0.281 -0.089,0 -0.173,-0.014 -0.252,-0.041 -0.079,-0.027 -0.153,-0.064 -0.222,-0.111 -0.145,-0.104 -0.217,-0.244 -0.217,-0.424 h -1.361 c 0,0.475 0.164,0.84 0.49,1.098 0.326,0.258 0.793,0.387 1.396,0.387 0.831,0 1.424,-0.178 1.777,-0.531 0.354,-0.354 0.531,-0.9 0.531,-1.643 V 277.8 Z m -1.457,2.004 c 0.017,-0.26 0.053,-0.465 0.107,-0.619 0.054,-0.154 0.131,-0.266 0.227,-0.334 0.097,-0.07 0.224,-0.104 0.382,-0.104 0.282,0 0.476,0.141 0.583,0.422 0.105,0.281 0.158,0.76 0.158,1.434 0,0.232 -0.012,0.447 -0.035,0.643 -0.024,0.197 -0.065,0.363 -0.123,0.5 -0.059,0.139 -0.139,0.246 -0.237,0.324 -0.101,0.08 -0.226,0.119 -0.377,0.119 -0.151,0 -0.272,-0.039 -0.364,-0.119 -0.094,-0.078 -0.166,-0.184 -0.218,-0.318 -0.051,-0.135 -0.086,-0.287 -0.103,-0.459 -0.018,-0.172 -0.026,-0.354 -0.026,-0.547 -10e-4,-0.372 0.008,-0.684 0.026,-0.942 m -4.838,3.539 h 1.422 v -3.328 c 0,-0.186 0.031,-0.342 0.094,-0.471 0.063,-0.127 0.145,-0.229 0.247,-0.309 0.103,-0.078 0.217,-0.135 0.34,-0.17 0.124,-0.033 0.248,-0.051 0.371,-0.051 0.075,0 0.149,0.002 0.222,0.006 0.072,0.002 0.146,0.008 0.221,0.014 v -1.359 c -0.041,-0.008 -0.084,-0.012 -0.127,-0.016 -0.045,-0.004 -0.088,-0.006 -0.129,-0.006 -0.297,0 -0.547,0.082 -0.754,0.244 -0.205,0.16 -0.381,0.375 -0.525,0.643 h -0.021 v -0.74 h -1.36 v 5.543 z m -3.59,-3.401 v -0.217 c 0,-0.131 0.012,-0.26 0.035,-0.393 0.024,-0.129 0.063,-0.248 0.118,-0.354 0.056,-0.107 0.129,-0.193 0.222,-0.258 0.094,-0.066 0.211,-0.1 0.355,-0.1 0.144,0 0.264,0.029 0.355,0.088 0.094,0.059 0.166,0.145 0.217,0.258 0.052,0.113 0.088,0.252 0.107,0.412 0.021,0.162 0.035,0.35 0.043,0.563 h -1.452 z m 2.813,0.844 v -0.318 c 0,-0.426 -0.028,-0.813 -0.082,-1.16 -0.057,-0.346 -0.159,-0.643 -0.311,-0.887 -0.15,-0.242 -0.358,-0.432 -0.623,-0.566 -0.265,-0.133 -0.603,-0.201 -1.015,-0.201 -0.481,0 -0.866,0.08 -1.153,0.238 -0.289,0.158 -0.51,0.371 -0.666,0.639 -0.155,0.268 -0.258,0.574 -0.309,0.918 -0.052,0.342 -0.077,0.699 -0.077,1.07 0,0.344 0.015,0.693 0.046,1.047 0.031,0.354 0.115,0.674 0.252,0.959 0.138,0.285 0.351,0.516 0.638,0.695 0.289,0.178 0.691,0.268 1.207,0.268 0.68,0 1.178,-0.174 1.494,-0.52 0.315,-0.348 0.488,-0.844 0.516,-1.49 h -1.277 c -0.043,0.35 -0.117,0.611 -0.228,0.783 -0.111,0.172 -0.285,0.258 -0.526,0.258 -0.13,0 -0.24,-0.037 -0.328,-0.109 -0.091,-0.072 -0.162,-0.168 -0.218,-0.287 -0.055,-0.121 -0.094,-0.258 -0.118,-0.412 -0.023,-0.154 -0.035,-0.314 -0.035,-0.48 v -0.443 h 2.813 z m -9.224,2.557 h 1.422 v -3.68 c 0,-0.609 0.251,-0.916 0.752,-0.916 0.213,0 0.368,0.057 0.464,0.17 0.096,0.113 0.144,0.314 0.144,0.604 v 3.822 h 1.422 v -4.111 c 0,-0.557 -0.122,-0.959 -0.365,-1.207 -0.244,-0.246 -0.593,-0.371 -1.046,-0.371 -0.31,0 -0.585,0.064 -0.825,0.191 -0.24,0.127 -0.436,0.328 -0.587,0.604 h -0.021 V 277.8 h -1.36 z m -4.95,-7.358 v 7.357 h 4.215 v -1.217 h -2.731 v -1.979 h 2.474 v -1.215 h -2.474 V 277.2 h 2.628 v -1.215 z m -8.282,0 v 7.357 h 1.36 v -5.152 h 0.021 l 1.813,5.152 h 1.69 v -7.357 h -1.36 v 5.039 h -0.021 l -1.793,-5.039 z m -4.396,2.422 c 0.024,-0.344 0.073,-0.625 0.145,-0.846 0.072,-0.219 0.175,-0.379 0.309,-0.479 0.134,-0.1 0.311,-0.15 0.531,-0.15 0.219,0 0.396,0.051 0.53,0.15 0.134,0.1 0.237,0.26 0.31,0.479 0.072,0.221 0.12,0.502 0.144,0.846 0.024,0.342 0.036,0.762 0.036,1.256 0,0.496 -0.012,0.916 -0.036,1.264 -0.024,0.346 -0.072,0.629 -0.144,0.844 -0.073,0.217 -0.176,0.375 -0.31,0.475 -0.134,0.1 -0.311,0.15 -0.53,0.15 -0.22,0 -0.397,-0.051 -0.531,-0.15 -0.134,-0.1 -0.237,-0.258 -0.309,-0.475 -0.072,-0.215 -0.121,-0.498 -0.145,-0.844 -0.024,-0.348 -0.036,-0.768 -0.036,-1.264 -10e-4,-0.494 0.012,-0.914 0.036,-1.256 m -1.442,2.797 c 0.051,0.471 0.165,0.875 0.34,1.211 0.175,0.336 0.427,0.6 0.757,0.789 0.33,0.189 0.773,0.283 1.33,0.283 0.556,0 0.999,-0.094 1.329,-0.283 0.33,-0.189 0.582,-0.453 0.757,-0.789 0.176,-0.336 0.289,-0.74 0.341,-1.211 0.051,-0.471 0.077,-0.984 0.077,-1.541 0,-0.557 -0.026,-1.068 -0.077,-1.541 -0.052,-0.469 -0.165,-0.873 -0.341,-1.211 -0.175,-0.336 -0.427,-0.598 -0.757,-0.787 -0.33,-0.189 -0.773,-0.283 -1.329,-0.283 -0.557,0 -1,0.094 -1.33,0.283 -0.33,0.189 -0.582,0.451 -0.757,0.787 -0.175,0.338 -0.289,0.742 -0.34,1.211 -0.052,0.473 -0.078,0.984 -0.078,1.541 0,0.557 0.025,1.07 0.078,1.541 m -2.216,2.139 h 1.36 v -1.607 h -1.36 z m -5.145,-7.358 v 7.357 h 4.215 v -1.217 h -2.731 v -1.979 h 2.473 v -1.215 h -2.473 V 277.2 h 2.628 v -1.215 z"
   id="path484" />
</g>
<rect
   x="273.44998"
   y="0"
   width="1"
   height="45.355"
   id="rect488" />
<g
   id="g598"
   transform="translate(-100.967,-237.589)">
	<path
   fill="#9d9d9c"
   d="m 109.346,238.783 v 2.478 h -5.355 v 3.528 h 5.04 v 2.478 h -5.04 v 4.032 h 5.565 v 2.478 h -8.589 v -14.994 z"
   id="path490" />
	<path
   fill="#9d9d9c"
   d="m 111.067,238.783 h 5.061 c 0.616,0 1.187,0.063 1.711,0.189 0.525,0.126 0.977,0.336 1.354,0.63 0.378,0.294 0.672,0.686 0.882,1.176 0.21,0.49 0.315,1.092 0.315,1.806 0,0.812 -0.189,1.509 -0.567,2.089 -0.378,0.581 -0.945,0.977 -1.701,1.187 v 0.042 c 0.84,0.112 1.505,0.469 1.995,1.071 0.49,0.603 0.735,1.407 0.735,2.415 0,0.588 -0.077,1.148 -0.231,1.68 -0.154,0.532 -0.417,0.998 -0.788,1.396 -0.371,0.398 -0.854,0.718 -1.449,0.956 -0.595,0.238 -1.333,0.357 -2.216,0.357 h -5.103 v -14.994 z m 3.024,6.154 h 0.861 c 0.84,0 1.452,-0.15 1.837,-0.452 0.385,-0.301 0.578,-0.809 0.578,-1.522 0,-0.713 -0.175,-1.218 -0.525,-1.512 -0.35,-0.294 -0.903,-0.441 -1.659,-0.441 h -1.092 z m 0,6.614 h 1.176 c 0.728,0 1.316,-0.161 1.764,-0.483 0.448,-0.322 0.672,-0.917 0.672,-1.785 0,-0.434 -0.06,-0.794 -0.179,-1.082 -0.119,-0.287 -0.28,-0.518 -0.483,-0.693 -0.203,-0.175 -0.444,-0.297 -0.725,-0.368 -0.28,-0.07 -0.588,-0.105 -0.924,-0.105 h -1.302 v 4.516 z"
   id="path492" />
	<path
   fill="#9d9d9c"
   d="m 129.148,243.844 c 0,-1.092 -0.13,-1.886 -0.389,-2.383 -0.259,-0.497 -0.731,-0.746 -1.417,-0.746 -0.378,0 -0.689,0.102 -0.935,0.305 -0.246,0.203 -0.438,0.532 -0.577,0.987 -0.14,0.455 -0.238,1.05 -0.294,1.785 -0.056,0.735 -0.084,1.635 -0.084,2.698 0,1.134 0.039,2.051 0.116,2.751 0.077,0.7 0.196,1.243 0.357,1.627 0.161,0.385 0.364,0.645 0.609,0.777 0.245,0.133 0.528,0.199 0.851,0.199 0.266,0 0.515,-0.045 0.746,-0.136 0.231,-0.091 0.431,-0.273 0.599,-0.546 0.168,-0.273 0.301,-0.658 0.399,-1.155 0.098,-0.497 0.147,-1.151 0.147,-1.963 h 3.024 c 0,0.812 -0.063,1.582 -0.189,2.31 -0.126,0.728 -0.361,1.369 -0.704,1.921 -0.343,0.553 -0.826,0.991 -1.449,1.313 -0.623,0.322 -1.432,0.483 -2.426,0.483 -1.134,0 -2.037,-0.192 -2.709,-0.578 -0.672,-0.385 -1.187,-0.92 -1.543,-1.606 -0.357,-0.686 -0.588,-1.508 -0.693,-2.467 -0.105,-0.959 -0.158,-2.005 -0.158,-3.14 0,-1.134 0.053,-2.18 0.158,-3.14 0.105,-0.958 0.336,-1.781 0.693,-2.467 0.357,-0.686 0.872,-1.221 1.543,-1.606 0.672,-0.385 1.575,-0.578 2.709,-0.578 1.078,0 1.929,0.175 2.552,0.525 0.623,0.35 1.088,0.795 1.396,1.333 0.308,0.539 0.5,1.121 0.577,1.743 0.077,0.623 0.116,1.208 0.116,1.753 h -3.025 z"
   id="path494" />
	<path
   fill="#9d9d9c"
   d="m 149.349,238.783 h 1.344 v 14.994 h -1.344 z"
   id="path496" />
	<path
   fill="#9d9d9c"
   d="m 153.171,242.626 h 1.134 v 1.554 h 0.042 c 0.322,-0.63 0.731,-1.088 1.229,-1.375 0.497,-0.287 1.04,-0.43 1.627,-0.43 0.854,0 1.543,0.234 2.068,0.703 0.525,0.469 0.788,1.229 0.788,2.279 v 8.421 h -1.26 v -8.064 c 0,-1.526 -0.637,-2.289 -1.911,-2.289 -0.756,0 -1.354,0.256 -1.795,0.767 -0.441,0.511 -0.662,1.208 -0.662,2.089 v 7.497 h -1.26 z"
   id="path498" />
	<path
   fill="#9d9d9c"
   d="m 164.259,248.233 c -0.798,-0.308 -1.354,-0.686 -1.669,-1.134 -0.315,-0.448 -0.473,-0.952 -0.473,-1.512 0,-0.574 0.084,-1.064 0.252,-1.47 0.168,-0.406 0.399,-0.738 0.693,-0.998 0.294,-0.259 0.644,-0.448 1.05,-0.567 0.406,-0.119 0.847,-0.178 1.323,-0.178 1.05,0 1.823,0.262 2.32,0.787 0.497,0.525 0.746,1.299 0.746,2.321 v 0.315 h -1.26 v -0.315 c 0,-0.728 -0.157,-1.253 -0.472,-1.575 -0.315,-0.322 -0.767,-0.483 -1.354,-0.483 -0.756,0 -1.285,0.175 -1.586,0.525 -0.301,0.35 -0.451,0.805 -0.451,1.365 0,0.392 0.094,0.742 0.283,1.05 0.189,0.308 0.599,0.581 1.229,0.819 l 1.827,0.693 c 0.756,0.28 1.292,0.665 1.606,1.155 0.315,0.49 0.473,1.05 0.473,1.68 0,0.476 -0.07,0.917 -0.21,1.323 -0.14,0.406 -0.35,0.756 -0.63,1.05 -0.28,0.294 -0.637,0.525 -1.071,0.693 -0.434,0.168 -0.945,0.252 -1.533,0.252 -1.148,0 -2.006,-0.263 -2.573,-0.788 -0.567,-0.525 -0.851,-1.417 -0.851,-2.677 v -0.357 h 1.26 v 0.294 c 0,1.652 0.714,2.478 2.142,2.478 0.672,0 1.208,-0.175 1.606,-0.525 0.399,-0.35 0.598,-0.84 0.598,-1.47 0,-0.49 -0.112,-0.899 -0.336,-1.229 -0.224,-0.329 -0.616,-0.605 -1.176,-0.83 z"
   id="path500" />
	<path
   fill="#9d9d9c"
   d="m 171.126,243.676 h -1.533 v -1.05 h 1.533 v -3.087 h 1.26 v 3.087 h 1.974 v 1.05 h -1.974 v 8.001 c 0,0.448 0.098,0.756 0.294,0.924 0.196,0.168 0.497,0.252 0.903,0.252 0.238,0 0.497,-0.042 0.777,-0.126 v 1.05 c -0.154,0.084 -0.448,0.126 -0.882,0.126 -0.854,0 -1.46,-0.14 -1.817,-0.42 -0.357,-0.28 -0.535,-0.791 -0.535,-1.533 z"
   id="path502" />
	<path
   fill="#9d9d9c"
   d="m 175.809,238.783 h 1.26 v 2.142 h -1.26 z m 0,3.843 h 1.26 v 11.151 h -1.26 z"
   id="path504" />
	<path
   fill="#9d9d9c"
   d="m 180.051,243.676 h -1.533 v -1.05 h 1.533 v -3.087 h 1.26 v 3.087 h 1.974 v 1.05 h -1.974 v 8.001 c 0,0.448 0.098,0.756 0.294,0.924 0.196,0.168 0.497,0.252 0.903,0.252 0.238,0 0.497,-0.042 0.777,-0.126 v 1.05 c -0.154,0.084 -0.448,0.126 -0.882,0.126 -0.854,0 -1.46,-0.14 -1.817,-0.42 -0.357,-0.28 -0.535,-0.791 -0.535,-1.533 z"
   id="path506" />
	<path
   fill="#9d9d9c"
   d="m 184.649,242.626 h 1.26 v 7.854 c 0,0.924 0.154,1.572 0.462,1.942 0.308,0.371 0.798,0.557 1.47,0.557 0.714,0 1.298,-0.255 1.753,-0.767 0.455,-0.511 0.683,-1.208 0.683,-2.089 v -7.497 h 1.26 v 11.151 h -1.134 v -1.554 h -0.042 c -0.322,0.63 -0.732,1.089 -1.229,1.375 -0.497,0.287 -1.04,0.431 -1.627,0.431 -0.854,0 -1.544,-0.234 -2.069,-0.704 -0.525,-0.469 -0.788,-1.229 -0.788,-2.278 v -8.421 z"
   id="path508" />
	<path
   fill="#9d9d9c"
   d="m 194.436,243.676 h -1.533 v -1.05 h 1.533 v -3.087 h 1.26 v 3.087 h 1.974 v 1.05 h -1.974 v 8.001 c 0,0.448 0.098,0.756 0.294,0.924 0.196,0.168 0.497,0.252 0.903,0.252 0.238,0 0.497,-0.042 0.777,-0.126 v 1.05 c -0.154,0.084 -0.448,0.126 -0.882,0.126 -0.854,0 -1.46,-0.14 -1.817,-0.42 -0.357,-0.28 -0.535,-0.791 -0.535,-1.533 z"
   id="path510" />
	<path
   fill="#9d9d9c"
   d="m 205.901,250.082 c -0.098,1.19 -0.458,2.146 -1.082,2.866 -0.623,0.721 -1.459,1.082 -2.509,1.082 -0.588,0 -1.113,-0.108 -1.575,-0.326 -0.462,-0.217 -0.854,-0.556 -1.176,-1.018 -0.322,-0.462 -0.567,-1.064 -0.735,-1.806 -0.168,-0.742 -0.252,-1.638 -0.252,-2.688 0,-1.96 0.333,-3.419 0.998,-4.378 0.665,-0.959 1.613,-1.438 2.846,-1.438 1.231,0 2.138,0.438 2.719,1.313 0.581,0.875 0.872,2.244 0.872,4.105 v 0.462 h -6.09 v 0.525 c 0,0.798 0.066,1.467 0.199,2.005 0.133,0.539 0.308,0.974 0.525,1.302 0.217,0.329 0.469,0.56 0.756,0.693 0.287,0.133 0.584,0.2 0.893,0.2 1.357,0 2.142,-0.966 2.352,-2.898 h 1.259 z m -1.238,-2.878 c -0.028,-1.386 -0.238,-2.362 -0.63,-2.929 -0.392,-0.567 -0.973,-0.851 -1.743,-0.851 -0.784,0 -1.373,0.284 -1.764,0.851 -0.392,0.567 -0.595,1.543 -0.609,2.929 z"
   id="path512" />
	<path
   fill="#9d9d9c"
   d="m 213.482,243.676 h -1.533 v -1.05 h 1.533 v -1.323 c 0,-0.378 0.028,-0.731 0.084,-1.061 0.056,-0.329 0.168,-0.616 0.336,-0.861 0.168,-0.245 0.413,-0.434 0.735,-0.567 0.322,-0.133 0.749,-0.2 1.281,-0.2 0.196,0 0.35,0.004 0.462,0.011 0.112,0.007 0.224,0.024 0.336,0.052 v 1.05 c -0.196,-0.042 -0.399,-0.063 -0.609,-0.063 -0.462,0 -0.805,0.112 -1.029,0.336 -0.224,0.224 -0.336,0.658 -0.336,1.302 v 1.323 h 1.974 v 1.05 h -1.974 v 10.101 h -1.26 z"
   id="path514" />
	<path
   fill="#9d9d9c"
   d="m 217.577,248.191 c 0,-1.96 0.333,-3.419 0.998,-4.378 0.665,-0.959 1.613,-1.438 2.846,-1.438 1.231,0 2.18,0.479 2.845,1.438 0.665,0.959 0.998,2.418 0.998,4.378 0,1.974 -0.333,3.44 -0.998,4.399 -0.665,0.959 -1.614,1.438 -2.845,1.438 -1.232,0 -2.181,-0.479 -2.846,-1.438 -0.665,-0.959 -0.998,-2.424 -0.998,-4.399 z m 1.344,0 c 0,0.896 0.063,1.648 0.189,2.257 0.126,0.609 0.301,1.103 0.525,1.48 0.224,0.378 0.486,0.648 0.788,0.809 0.301,0.161 0.633,0.242 0.998,0.242 0.35,0 0.679,-0.081 0.987,-0.242 0.308,-0.161 0.574,-0.431 0.798,-0.809 0.224,-0.378 0.399,-0.872 0.525,-1.48 0.126,-0.608 0.189,-1.361 0.189,-2.257 0,-0.882 -0.063,-1.627 -0.189,-2.236 -0.126,-0.609 -0.301,-1.103 -0.525,-1.481 -0.224,-0.378 -0.49,-0.647 -0.798,-0.808 -0.308,-0.161 -0.637,-0.242 -0.987,-0.242 -0.364,0 -0.697,0.081 -0.998,0.242 -0.301,0.161 -0.564,0.43 -0.788,0.808 -0.224,0.378 -0.399,0.872 -0.525,1.481 -0.126,0.609 -0.189,1.355 -0.189,2.236 z"
   id="path516" />
	<path
   fill="#9d9d9c"
   d="m 227.111,242.626 h 1.26 v 1.743 h 0.042 c 0.238,-0.63 0.599,-1.12 1.082,-1.47 0.483,-0.35 1.061,-0.525 1.732,-0.525 0.14,0 0.287,0.021 0.441,0.063 v 1.26 c -0.21,-0.042 -0.413,-0.063 -0.609,-0.063 -0.35,0 -0.686,0.063 -1.008,0.189 -0.322,0.126 -0.609,0.322 -0.861,0.588 -0.252,0.266 -0.451,0.595 -0.598,0.987 -0.147,0.392 -0.221,0.861 -0.221,1.407 v 6.972 h -1.26 z"
   id="path518" />
	<path
   fill="#9d9d9c"
   d="m 237.947,238.783 h 7.434 v 1.134 h -6.09 v 5.46 h 5.691 v 1.134 h -5.691 v 6.132 h 6.279 v 1.134 h -7.623 z"
   id="path520" />
	<path
   fill="#9d9d9c"
   d="m 247.313,242.626 h 1.134 v 1.554 h 0.042 c 0.322,-0.63 0.731,-1.088 1.229,-1.375 0.497,-0.287 1.04,-0.43 1.627,-0.43 0.854,0 1.543,0.234 2.068,0.703 0.525,0.469 0.788,1.229 0.788,2.279 v 8.421 h -1.26 v -8.064 c 0,-1.526 -0.637,-2.289 -1.911,-2.289 -0.756,0 -1.354,0.256 -1.795,0.767 -0.441,0.511 -0.662,1.208 -0.662,2.089 v 7.497 h -1.26 z"
   id="path522" />
	<path
   fill="#9d9d9c"
   d="m 263.503,250.082 c -0.098,1.19 -0.458,2.146 -1.082,2.866 -0.623,0.721 -1.459,1.082 -2.509,1.082 -0.588,0 -1.113,-0.108 -1.575,-0.326 -0.462,-0.217 -0.854,-0.556 -1.176,-1.018 -0.322,-0.462 -0.567,-1.064 -0.735,-1.806 -0.168,-0.742 -0.252,-1.638 -0.252,-2.688 0,-1.96 0.333,-3.419 0.998,-4.378 0.665,-0.959 1.613,-1.438 2.846,-1.438 1.231,0 2.138,0.438 2.719,1.313 0.581,0.875 0.872,2.244 0.872,4.105 v 0.462 h -6.09 v 0.525 c 0,0.798 0.066,1.467 0.199,2.005 0.133,0.539 0.308,0.974 0.525,1.302 0.217,0.329 0.469,0.56 0.756,0.693 0.287,0.133 0.584,0.2 0.893,0.2 1.357,0 2.142,-0.966 2.352,-2.898 h 1.259 z m -1.238,-2.878 c -0.028,-1.386 -0.238,-2.362 -0.63,-2.929 -0.392,-0.567 -0.973,-0.851 -1.743,-0.851 -0.784,0 -1.373,0.284 -1.764,0.851 -0.392,0.567 -0.595,1.543 -0.609,2.929 z"
   id="path524" />
	<path
   fill="#9d9d9c"
   d="m 265.582,242.626 h 1.26 v 1.743 h 0.042 c 0.238,-0.63 0.599,-1.12 1.082,-1.47 0.483,-0.35 1.061,-0.525 1.732,-0.525 0.14,0 0.287,0.021 0.441,0.063 v 1.26 c -0.21,-0.042 -0.413,-0.063 -0.609,-0.063 -0.35,0 -0.686,0.063 -1.008,0.189 -0.322,0.126 -0.609,0.322 -0.861,0.588 -0.252,0.266 -0.451,0.595 -0.598,0.987 -0.147,0.392 -0.221,0.861 -0.221,1.407 v 6.972 h -1.26 z"
   id="path526" />
	<path
   fill="#9d9d9c"
   d="m 277.174,242.626 h 1.134 v 10.353 c 0,1.568 -0.291,2.737 -0.872,3.507 -0.581,0.77 -1.509,1.155 -2.782,1.155 -1.092,0 -1.915,-0.255 -2.468,-0.766 -0.553,-0.511 -0.836,-1.166 -0.851,-1.964 h 1.26 c 0,0.532 0.21,0.945 0.63,1.239 0.42,0.294 0.91,0.441 1.47,0.441 1.568,0 2.352,-1.015 2.352,-3.045 v -1.764 h -0.042 c -0.196,0.686 -0.532,1.19 -1.008,1.512 -0.476,0.322 -1.008,0.483 -1.596,0.483 -0.434,0 -0.858,-0.081 -1.271,-0.242 -0.413,-0.161 -0.781,-0.451 -1.103,-0.871 -0.322,-0.42 -0.581,-0.991 -0.777,-1.712 -0.196,-0.721 -0.294,-1.641 -0.294,-2.761 0,-1.946 0.287,-3.402 0.861,-4.368 0.574,-0.966 1.477,-1.449 2.709,-1.449 0.63,0 1.172,0.171 1.627,0.514 0.455,0.343 0.78,0.83 0.977,1.459 h 0.042 v -1.721 z m -4.872,5.439 c 0,0.896 0.052,1.642 0.157,2.236 0.105,0.595 0.259,1.071 0.462,1.428 0.203,0.357 0.451,0.612 0.745,0.767 0.294,0.154 0.63,0.231 1.008,0.231 0.378,0 0.714,-0.077 1.008,-0.231 0.294,-0.154 0.542,-0.41 0.746,-0.767 0.203,-0.357 0.357,-0.833 0.462,-1.428 0.105,-0.595 0.158,-1.34 0.158,-2.236 0,-0.882 -0.053,-1.621 -0.158,-2.216 -0.105,-0.595 -0.259,-1.071 -0.462,-1.428 -0.203,-0.357 -0.452,-0.612 -0.746,-0.767 -0.294,-0.154 -0.63,-0.231 -1.008,-0.231 -0.378,0 -0.714,0.077 -1.008,0.231 -0.294,0.154 -0.542,0.41 -0.745,0.767 -0.203,0.357 -0.357,0.833 -0.462,1.428 -0.105,0.596 -0.157,1.334 -0.157,2.216 z"
   id="path528" />
	<path
   fill="#9d9d9c"
   d="m 279.757,242.626 h 1.344 l 2.499,9.66 h 0.042 l 2.247,-9.66 h 1.344 l -3.255,12.054 c -0.154,0.546 -0.315,0.998 -0.483,1.354 -0.168,0.357 -0.364,0.644 -0.588,0.861 -0.224,0.217 -0.486,0.367 -0.788,0.451 -0.301,0.084 -0.668,0.126 -1.102,0.126 -0.168,0 -0.319,-0.003 -0.452,-0.01 -0.133,-0.007 -0.263,-0.018 -0.389,-0.032 v -1.05 c 0.14,0.014 0.276,0.024 0.41,0.032 0.133,0.007 0.27,0.01 0.41,0.01 0.392,0 0.721,-0.102 0.987,-0.305 0.266,-0.203 0.49,-0.598 0.672,-1.187 l 0.315,-1.05 z"
   id="path530" />
	<path
   fill="#9d9d9c"
   d="m 293.595,238.783 h 7.434 v 1.134 h -6.09 v 5.46 h 5.691 v 1.134 h -5.691 v 6.132 h 6.279 v 1.134 h -7.623 z"
   id="path532" />
	<path
   fill="#9d9d9c"
   d="m 303.423,243.676 h -1.533 v -1.05 h 1.533 v -1.323 c 0,-0.378 0.028,-0.731 0.084,-1.061 0.056,-0.329 0.168,-0.616 0.336,-0.861 0.168,-0.245 0.413,-0.434 0.735,-0.567 0.322,-0.133 0.749,-0.2 1.281,-0.2 0.196,0 0.35,0.004 0.462,0.011 0.112,0.007 0.224,0.024 0.336,0.052 v 1.05 c -0.196,-0.042 -0.399,-0.063 -0.609,-0.063 -0.462,0 -0.805,0.112 -1.029,0.336 -0.224,0.224 -0.336,0.658 -0.336,1.302 v 1.323 h 1.974 v 1.05 h -1.974 v 10.101 h -1.26 z"
   id="path534" />
	<path
   fill="#9d9d9c"
   d="m 308.484,243.676 h -1.533 v -1.05 h 1.533 v -1.323 c 0,-0.378 0.028,-0.731 0.084,-1.061 0.056,-0.329 0.168,-0.616 0.336,-0.861 0.168,-0.245 0.413,-0.434 0.735,-0.567 0.322,-0.133 0.749,-0.2 1.281,-0.2 0.196,0 0.35,0.004 0.462,0.011 0.112,0.007 0.224,0.024 0.336,0.052 v 1.05 c -0.196,-0.042 -0.399,-0.063 -0.609,-0.063 -0.462,0 -0.805,0.112 -1.029,0.336 -0.224,0.224 -0.336,0.658 -0.336,1.302 v 1.323 h 1.974 v 1.05 h -1.974 v 10.101 h -1.26 z m 4.704,-4.893 h 1.26 v 2.142 h -1.26 z m 0,3.843 h 1.26 v 11.151 h -1.26 z"
   id="path536" />
	<path
   fill="#9d9d9c"
   d="m 323.667,250.082 c -0.098,1.19 -0.452,2.146 -1.061,2.866 -0.609,0.721 -1.438,1.082 -2.488,1.082 -0.588,0 -1.113,-0.108 -1.575,-0.326 -0.462,-0.217 -0.854,-0.556 -1.176,-1.018 -0.322,-0.462 -0.567,-1.064 -0.735,-1.806 -0.168,-0.742 -0.252,-1.638 -0.252,-2.688 0,-1.96 0.333,-3.419 0.998,-4.378 0.665,-0.959 1.613,-1.438 2.846,-1.438 1.05,0 1.869,0.308 2.457,0.924 0.588,0.616 0.917,1.498 0.987,2.646 h -1.26 c -0.07,-0.882 -0.284,-1.522 -0.641,-1.921 -0.357,-0.399 -0.872,-0.599 -1.543,-0.599 -0.336,0 -0.658,0.063 -0.966,0.189 -0.308,0.126 -0.574,0.368 -0.798,0.725 -0.224,0.357 -0.403,0.847 -0.536,1.47 -0.133,0.624 -0.199,1.425 -0.199,2.405 0,1.05 0.07,1.89 0.21,2.52 0.14,0.63 0.318,1.11 0.536,1.438 0.217,0.329 0.469,0.546 0.756,0.651 0.287,0.105 0.578,0.158 0.872,0.158 1.315,0 2.086,-0.966 2.31,-2.898 h 1.258 z"
   id="path538" />
	<path
   fill="#9d9d9c"
   d="m 325.599,238.783 h 1.26 v 2.142 h -1.26 z m 0,3.843 h 1.26 v 11.151 h -1.26 z"
   id="path540" />
	<path
   fill="#9d9d9c"
   d="m 336.246,250.082 c -0.098,1.19 -0.458,2.146 -1.082,2.866 -0.623,0.721 -1.459,1.082 -2.509,1.082 -0.588,0 -1.113,-0.108 -1.575,-0.326 -0.462,-0.217 -0.854,-0.556 -1.176,-1.018 -0.322,-0.462 -0.567,-1.064 -0.735,-1.806 -0.168,-0.742 -0.252,-1.638 -0.252,-2.688 0,-1.96 0.333,-3.419 0.998,-4.378 0.665,-0.959 1.613,-1.438 2.846,-1.438 1.231,0 2.138,0.438 2.719,1.313 0.581,0.875 0.872,2.244 0.872,4.105 v 0.462 h -6.09 v 0.525 c 0,0.798 0.066,1.467 0.199,2.005 0.133,0.539 0.308,0.974 0.525,1.302 0.217,0.329 0.469,0.56 0.756,0.693 0.287,0.133 0.584,0.2 0.893,0.2 1.357,0 2.142,-0.966 2.352,-2.898 h 1.259 z m -1.239,-2.878 c -0.028,-1.386 -0.238,-2.362 -0.63,-2.929 -0.392,-0.567 -0.973,-0.851 -1.743,-0.851 -0.784,0 -1.373,0.284 -1.764,0.851 -0.392,0.567 -0.595,1.543 -0.609,2.929 z"
   id="path542" />
	<path
   fill="#9d9d9c"
   d="m 338.324,242.626 h 1.134 v 1.554 h 0.042 c 0.322,-0.63 0.731,-1.088 1.229,-1.375 0.497,-0.287 1.04,-0.43 1.627,-0.43 0.854,0 1.543,0.234 2.068,0.703 0.525,0.469 0.788,1.229 0.788,2.279 v 8.421 h -1.26 v -8.064 c 0,-1.526 -0.637,-2.289 -1.911,-2.289 -0.756,0 -1.354,0.256 -1.795,0.767 -0.441,0.511 -0.662,1.208 -0.662,2.089 v 7.497 h -1.26 z"
   id="path544" />
	<path
   fill="#9d9d9c"
   d="m 348.11,243.676 h -1.533 v -1.05 h 1.533 v -3.087 h 1.26 v 3.087 h 1.974 v 1.05 h -1.974 v 8.001 c 0,0.448 0.098,0.756 0.294,0.924 0.196,0.168 0.497,0.252 0.903,0.252 0.238,0 0.497,-0.042 0.777,-0.126 v 1.05 c -0.154,0.084 -0.448,0.126 -0.882,0.126 -0.854,0 -1.46,-0.14 -1.817,-0.42 -0.357,-0.28 -0.535,-0.791 -0.535,-1.533 z"
   id="path546" />
	<path
   fill="#9d9d9c"
   d="m 149.333,266.983 h 4.137 c 0.728,0 1.347,0.091 1.858,0.273 0.511,0.182 0.927,0.438 1.25,0.767 0.322,0.329 0.557,0.725 0.704,1.187 0.147,0.462 0.221,0.973 0.221,1.533 0,0.742 -0.196,1.421 -0.588,2.037 -0.392,0.617 -0.966,1.022 -1.722,1.218 v 0.042 c 0.924,0.182 1.62,0.605 2.089,1.271 0.469,0.665 0.704,1.488 0.704,2.467 0,1.316 -0.396,2.345 -1.187,3.087 -0.791,0.742 -1.908,1.113 -3.35,1.113 h -4.116 z m 1.344,6.595 h 2.121 c 1.176,0 2.03,-0.234 2.562,-0.704 0.532,-0.469 0.798,-1.145 0.798,-2.026 0,-1.008 -0.259,-1.715 -0.777,-2.121 -0.518,-0.406 -1.302,-0.609 -2.352,-0.609 h -2.352 z m 0,7.266 h 2.499 c 2.31,0 3.465,-1.022 3.465,-3.066 0,-2.043 -1.155,-3.066 -3.465,-3.066 h -2.499 z"
   id="path548" />
	<path
   fill="#9d9d9c"
   d="m 159.875,270.827 h 1.26 v 7.854 c 0,0.924 0.154,1.572 0.462,1.942 0.308,0.371 0.798,0.557 1.47,0.557 0.714,0 1.298,-0.255 1.753,-0.767 0.455,-0.511 0.683,-1.208 0.683,-2.089 v -7.497 h 1.26 v 11.151 h -1.134 v -1.554 h -0.042 c -0.322,0.63 -0.732,1.089 -1.229,1.375 -0.497,0.287 -1.04,0.431 -1.627,0.431 -0.854,0 -1.544,-0.234 -2.069,-0.704 -0.525,-0.469 -0.788,-1.229 -0.788,-2.278 v -8.421 z"
   id="path550" />
	<path
   fill="#9d9d9c"
   d="m 169.282,266.983 h 1.26 v 2.142 h -1.26 z m 0,3.844 h 1.26 v 11.151 h -1.26 z"
   id="path552" />
	<path
   fill="#9d9d9c"
   d="m 173.146,266.983 h 1.26 v 14.994 h -1.26 z"
   id="path554" />
	<path
   fill="#9d9d9c"
   d="m 182.806,280.129 h -0.042 c -0.168,0.644 -0.497,1.155 -0.987,1.533 -0.49,0.378 -1.071,0.567 -1.743,0.567 -1.232,0 -2.135,-0.483 -2.709,-1.449 -0.574,-0.966 -0.861,-2.429 -0.861,-4.389 0,-1.946 0.287,-3.402 0.861,-4.368 0.574,-0.966 1.477,-1.449 2.709,-1.449 0.714,0 1.292,0.175 1.732,0.525 0.441,0.35 0.731,0.819 0.872,1.407 h 0.042 v -5.523 h 1.26 v 14.994 h -1.134 z m -4.998,-3.737 c 0,1.036 0.066,1.869 0.199,2.499 0.133,0.63 0.315,1.113 0.546,1.449 0.231,0.336 0.49,0.56 0.777,0.672 0.287,0.112 0.591,0.168 0.914,0.168 0.322,0 0.63,-0.056 0.924,-0.168 0.294,-0.112 0.553,-0.336 0.777,-0.672 0.224,-0.336 0.402,-0.819 0.536,-1.449 0.133,-0.63 0.2,-1.463 0.2,-2.499 0,-1.022 -0.067,-1.848 -0.2,-2.478 -0.133,-0.63 -0.312,-1.113 -0.536,-1.449 -0.224,-0.336 -0.483,-0.56 -0.777,-0.672 -0.294,-0.112 -0.602,-0.168 -0.924,-0.168 -0.322,0 -0.627,0.056 -0.914,0.168 -0.287,0.112 -0.546,0.336 -0.777,0.672 -0.231,0.336 -0.413,0.819 -0.546,1.449 -0.132,0.629 -0.199,1.456 -0.199,2.478 z"
   id="path556" />
	<path
   fill="#9d9d9c"
   d="m 186.333,266.983 h 1.26 v 2.142 h -1.26 z m 0,3.844 h 1.26 v 11.151 h -1.26 z"
   id="path558" />
	<path
   fill="#9d9d9c"
   d="m 190.113,270.827 h 1.134 v 1.554 h 0.042 c 0.322,-0.63 0.731,-1.088 1.229,-1.375 0.497,-0.287 1.04,-0.43 1.627,-0.43 0.854,0 1.543,0.234 2.068,0.703 0.525,0.469 0.788,1.229 0.788,2.279 v 8.421 h -1.26 v -8.064 c 0,-1.526 -0.637,-2.289 -1.911,-2.289 -0.756,0 -1.354,0.256 -1.795,0.767 -0.441,0.511 -0.662,1.208 -0.662,2.089 v 7.497 h -1.26 z"
   id="path560" />
	<path
   fill="#9d9d9c"
   d="m 205.191,270.827 h 1.134 v 10.353 c 0,1.568 -0.291,2.737 -0.872,3.507 -0.581,0.77 -1.509,1.155 -2.782,1.155 -1.092,0 -1.915,-0.255 -2.468,-0.766 -0.553,-0.511 -0.836,-1.166 -0.851,-1.964 h 1.26 c 0,0.532 0.21,0.945 0.63,1.239 0.42,0.294 0.91,0.441 1.47,0.441 1.568,0 2.352,-1.015 2.352,-3.045 v -1.764 h -0.042 c -0.196,0.686 -0.532,1.19 -1.008,1.512 -0.476,0.322 -1.008,0.483 -1.596,0.483 -0.434,0 -0.858,-0.081 -1.271,-0.242 -0.413,-0.161 -0.781,-0.451 -1.103,-0.871 -0.322,-0.42 -0.581,-0.991 -0.777,-1.712 -0.196,-0.721 -0.294,-1.641 -0.294,-2.761 0,-1.946 0.287,-3.402 0.861,-4.368 0.574,-0.966 1.477,-1.449 2.709,-1.449 0.63,0 1.172,0.171 1.627,0.514 0.455,0.343 0.78,0.83 0.977,1.459 h 0.042 v -1.721 z m -4.872,5.439 c 0,0.896 0.052,1.642 0.157,2.236 0.105,0.595 0.259,1.071 0.462,1.428 0.203,0.357 0.451,0.612 0.745,0.767 0.294,0.154 0.63,0.231 1.008,0.231 0.378,0 0.714,-0.077 1.008,-0.231 0.294,-0.154 0.542,-0.41 0.746,-0.767 0.203,-0.357 0.357,-0.833 0.462,-1.428 0.105,-0.595 0.158,-1.34 0.158,-2.236 0,-0.882 -0.053,-1.621 -0.158,-2.216 -0.105,-0.595 -0.259,-1.071 -0.462,-1.428 -0.203,-0.357 -0.452,-0.612 -0.746,-0.767 -0.294,-0.154 -0.63,-0.231 -1.008,-0.231 -0.378,0 -0.714,0.077 -1.008,0.231 -0.294,0.154 -0.542,0.41 -0.745,0.767 -0.203,0.357 -0.357,0.833 -0.462,1.428 -0.104,0.595 -0.157,1.333 -0.157,2.216 z"
   id="path562" />
	<path
   fill="#9d9d9c"
   d="m 210.525,276.434 c -0.798,-0.308 -1.354,-0.686 -1.669,-1.134 -0.315,-0.448 -0.473,-0.952 -0.473,-1.512 0,-0.574 0.084,-1.064 0.252,-1.47 0.168,-0.406 0.399,-0.738 0.693,-0.998 0.294,-0.259 0.644,-0.448 1.05,-0.567 0.406,-0.119 0.847,-0.178 1.323,-0.178 1.05,0 1.823,0.262 2.32,0.787 0.497,0.525 0.746,1.299 0.746,2.321 v 0.315 h -1.26 v -0.315 c 0,-0.728 -0.157,-1.253 -0.472,-1.575 -0.315,-0.322 -0.767,-0.483 -1.354,-0.483 -0.756,0 -1.285,0.175 -1.586,0.525 -0.301,0.35 -0.451,0.805 -0.451,1.365 0,0.392 0.094,0.742 0.283,1.05 0.189,0.308 0.599,0.581 1.229,0.819 l 1.827,0.693 c 0.756,0.28 1.292,0.665 1.606,1.155 0.315,0.49 0.473,1.05 0.473,1.68 0,0.476 -0.07,0.917 -0.21,1.323 -0.14,0.406 -0.35,0.756 -0.63,1.05 -0.28,0.294 -0.637,0.525 -1.071,0.693 -0.434,0.168 -0.945,0.252 -1.533,0.252 -1.148,0 -2.006,-0.263 -2.573,-0.788 -0.567,-0.525 -0.851,-1.417 -0.851,-2.677 v -0.357 h 1.26 v 0.294 c 0,1.652 0.714,2.478 2.142,2.478 0.672,0 1.208,-0.175 1.606,-0.525 0.399,-0.35 0.598,-0.84 0.598,-1.47 0,-0.49 -0.112,-0.899 -0.336,-1.229 -0.224,-0.329 -0.616,-0.605 -1.176,-0.83 z"
   id="path564" />
	<path
   fill="#9d9d9c"
   d="m 221.738,274.145 c 0,-1.148 0.276,-2.03 0.83,-2.646 0.553,-0.616 1.424,-0.924 2.615,-0.924 1.147,0 1.96,0.273 2.436,0.819 0.476,0.546 0.714,1.26 0.714,2.142 v 6.594 c 0,0.616 0.217,0.924 0.651,0.924 h 0.357 v 0.924 c -0.238,0.084 -0.434,0.126 -0.588,0.126 -0.49,0 -0.882,-0.087 -1.176,-0.263 -0.294,-0.175 -0.441,-0.549 -0.441,-1.123 v -0.378 h -0.042 c -0.126,0.364 -0.287,0.669 -0.483,0.914 -0.196,0.245 -0.42,0.441 -0.672,0.588 -0.252,0.147 -0.525,0.249 -0.819,0.305 -0.294,0.056 -0.595,0.084 -0.903,0.084 -0.98,0 -1.698,-0.284 -2.152,-0.851 -0.455,-0.567 -0.683,-1.333 -0.683,-2.299 0,-0.756 0.175,-1.403 0.525,-1.942 0.35,-0.539 0.924,-0.92 1.722,-1.145 l 2.373,-0.672 c 0.224,-0.056 0.406,-0.119 0.546,-0.189 0.14,-0.07 0.249,-0.168 0.326,-0.294 0.077,-0.126 0.129,-0.29 0.157,-0.493 0.028,-0.203 0.042,-0.465 0.042,-0.788 0,-0.714 -0.175,-1.214 -0.525,-1.501 -0.35,-0.287 -0.819,-0.431 -1.407,-0.431 -0.756,0 -1.302,0.217 -1.638,0.651 -0.336,0.434 -0.504,1.057 -0.504,1.869 h -1.261 z m 5.334,1.533 h -0.042 c -0.07,0.196 -0.249,0.35 -0.535,0.462 -0.287,0.112 -0.557,0.203 -0.809,0.273 l -1.05,0.273 c -0.63,0.168 -1.106,0.427 -1.428,0.777 -0.322,0.35 -0.483,0.861 -0.483,1.533 0,0.672 0.157,1.204 0.472,1.596 0.315,0.393 0.746,0.588 1.292,0.588 0.77,0 1.393,-0.273 1.869,-0.819 0.476,-0.546 0.714,-1.323 0.714,-2.331 z"
   id="path566" />
	<path
   fill="#9d9d9c"
   d="m 230.915,270.827 h 1.134 v 1.554 h 0.042 c 0.322,-0.63 0.731,-1.088 1.229,-1.375 0.497,-0.287 1.04,-0.43 1.627,-0.43 0.854,0 1.543,0.234 2.068,0.703 0.525,0.469 0.788,1.229 0.788,2.279 v 8.421 h -1.26 v -8.064 c 0,-1.526 -0.637,-2.289 -1.911,-2.289 -0.756,0 -1.354,0.256 -1.795,0.767 -0.441,0.511 -0.662,1.208 -0.662,2.089 v 7.497 h -1.26 z"
   id="path568" />
	<path
   fill="#9d9d9c"
   d="m 246.119,280.129 h -0.042 c -0.168,0.644 -0.497,1.155 -0.987,1.533 -0.49,0.378 -1.071,0.567 -1.743,0.567 -1.232,0 -2.135,-0.483 -2.709,-1.449 -0.574,-0.966 -0.861,-2.429 -0.861,-4.389 0,-1.946 0.287,-3.402 0.861,-4.368 0.574,-0.966 1.477,-1.449 2.709,-1.449 0.714,0 1.292,0.175 1.732,0.525 0.441,0.35 0.731,0.819 0.872,1.407 h 0.042 v -5.523 h 1.26 v 14.994 h -1.134 z m -4.998,-3.737 c 0,1.036 0.066,1.869 0.199,2.499 0.133,0.63 0.315,1.113 0.546,1.449 0.231,0.336 0.49,0.56 0.777,0.672 0.287,0.112 0.591,0.168 0.914,0.168 0.322,0 0.63,-0.056 0.924,-0.168 0.294,-0.112 0.553,-0.336 0.777,-0.672 0.224,-0.336 0.402,-0.819 0.536,-1.449 0.133,-0.63 0.2,-1.463 0.2,-2.499 0,-1.022 -0.067,-1.848 -0.2,-2.478 -0.133,-0.63 -0.312,-1.113 -0.536,-1.449 -0.224,-0.336 -0.483,-0.56 -0.777,-0.672 -0.294,-0.112 -0.602,-0.168 -0.924,-0.168 -0.322,0 -0.627,0.056 -0.914,0.168 -0.287,0.112 -0.546,0.336 -0.777,0.672 -0.231,0.336 -0.413,0.819 -0.546,1.449 -0.132,0.629 -0.199,1.456 -0.199,2.478 z"
   id="path570" />
	<path
   fill="#9d9d9c"
   d="m 254.644,266.983 h 1.344 v 14.994 h -1.344 z"
   id="path572" />
	<path
   fill="#9d9d9c"
   d="m 258.466,270.827 h 1.134 v 1.554 h 0.042 c 0.322,-0.63 0.731,-1.088 1.229,-1.375 0.497,-0.287 1.04,-0.43 1.627,-0.43 0.854,0 1.543,0.234 2.068,0.703 0.525,0.469 0.788,1.229 0.788,2.279 v 8.421 h -1.26 v -8.064 c 0,-1.526 -0.637,-2.289 -1.911,-2.289 -0.756,0 -1.354,0.256 -1.795,0.767 -0.441,0.511 -0.662,1.208 -0.662,2.089 v 7.497 h -1.26 z"
   id="path574" />
	<path
   fill="#9d9d9c"
   d="m 273.67,280.129 h -0.042 c -0.168,0.644 -0.497,1.155 -0.987,1.533 -0.49,0.378 -1.071,0.567 -1.743,0.567 -1.232,0 -2.135,-0.483 -2.709,-1.449 -0.574,-0.966 -0.861,-2.429 -0.861,-4.389 0,-1.946 0.287,-3.402 0.861,-4.368 0.574,-0.966 1.477,-1.449 2.709,-1.449 0.714,0 1.292,0.175 1.732,0.525 0.441,0.35 0.731,0.819 0.872,1.407 h 0.042 v -5.523 h 1.26 v 14.994 h -1.134 z m -4.998,-3.737 c 0,1.036 0.066,1.869 0.199,2.499 0.133,0.63 0.315,1.113 0.546,1.449 0.231,0.336 0.49,0.56 0.777,0.672 0.287,0.112 0.591,0.168 0.914,0.168 0.322,0 0.63,-0.056 0.924,-0.168 0.294,-0.112 0.553,-0.336 0.777,-0.672 0.224,-0.336 0.402,-0.819 0.536,-1.449 0.133,-0.63 0.2,-1.463 0.2,-2.499 0,-1.022 -0.067,-1.848 -0.2,-2.478 -0.133,-0.63 -0.312,-1.113 -0.536,-1.449 -0.224,-0.336 -0.483,-0.56 -0.777,-0.672 -0.294,-0.112 -0.602,-0.168 -0.924,-0.168 -0.322,0 -0.627,0.056 -0.914,0.168 -0.287,0.112 -0.546,0.336 -0.777,0.672 -0.231,0.336 -0.413,0.819 -0.546,1.449 -0.133,0.629 -0.199,1.456 -0.199,2.478 z"
   id="path576" />
	<path
   fill="#9d9d9c"
   d="m 276.525,276.392 c 0,-1.96 0.333,-3.419 0.998,-4.378 0.665,-0.959 1.613,-1.438 2.846,-1.438 1.231,0 2.18,0.479 2.845,1.438 0.665,0.959 0.998,2.418 0.998,4.378 0,1.974 -0.333,3.44 -0.998,4.399 -0.665,0.959 -1.614,1.438 -2.845,1.438 -1.232,0 -2.181,-0.479 -2.846,-1.438 -0.665,-0.959 -0.998,-2.425 -0.998,-4.399 z m 1.345,0 c 0,0.896 0.063,1.648 0.189,2.257 0.126,0.609 0.301,1.103 0.525,1.48 0.224,0.378 0.486,0.648 0.788,0.809 0.301,0.161 0.633,0.242 0.998,0.242 0.35,0 0.679,-0.081 0.987,-0.242 0.308,-0.161 0.574,-0.431 0.798,-0.809 0.224,-0.378 0.399,-0.872 0.525,-1.48 0.126,-0.608 0.189,-1.361 0.189,-2.257 0,-0.882 -0.063,-1.627 -0.189,-2.236 -0.126,-0.609 -0.301,-1.103 -0.525,-1.481 -0.224,-0.378 -0.49,-0.647 -0.798,-0.808 -0.308,-0.161 -0.637,-0.242 -0.987,-0.242 -0.364,0 -0.697,0.081 -0.998,0.242 -0.301,0.161 -0.564,0.43 -0.788,0.808 -0.224,0.378 -0.399,0.872 -0.525,1.481 -0.126,0.608 -0.189,1.354 -0.189,2.236 z"
   id="path578" />
	<path
   fill="#9d9d9c"
   d="m 285.471,276.392 c 0,-1.96 0.333,-3.419 0.998,-4.378 0.665,-0.959 1.613,-1.438 2.846,-1.438 1.231,0 2.18,0.479 2.845,1.438 0.665,0.959 0.998,2.418 0.998,4.378 0,1.974 -0.333,3.44 -0.998,4.399 -0.665,0.959 -1.614,1.438 -2.845,1.438 -1.232,0 -2.181,-0.479 -2.846,-1.438 -0.665,-0.959 -0.998,-2.425 -0.998,-4.399 z m 1.344,0 c 0,0.896 0.063,1.648 0.189,2.257 0.126,0.609 0.301,1.103 0.525,1.48 0.224,0.378 0.486,0.648 0.788,0.809 0.301,0.161 0.633,0.242 0.998,0.242 0.35,0 0.679,-0.081 0.987,-0.242 0.308,-0.161 0.574,-0.431 0.798,-0.809 0.224,-0.378 0.399,-0.872 0.525,-1.48 0.126,-0.608 0.189,-1.361 0.189,-2.257 0,-0.882 -0.063,-1.627 -0.189,-2.236 -0.126,-0.609 -0.301,-1.103 -0.525,-1.481 -0.224,-0.378 -0.49,-0.647 -0.798,-0.808 -0.308,-0.161 -0.637,-0.242 -0.987,-0.242 -0.364,0 -0.697,0.081 -0.998,0.242 -0.301,0.161 -0.564,0.43 -0.788,0.808 -0.224,0.378 -0.399,0.872 -0.525,1.481 -0.126,0.608 -0.189,1.354 -0.189,2.236 z"
   id="path580" />
	<path
   fill="#9d9d9c"
   d="m 295.005,270.827 h 1.26 v 1.743 h 0.042 c 0.238,-0.63 0.599,-1.12 1.082,-1.47 0.483,-0.35 1.061,-0.525 1.732,-0.525 0.14,0 0.287,0.021 0.441,0.063 v 1.26 c -0.21,-0.042 -0.413,-0.063 -0.609,-0.063 -0.35,0 -0.686,0.063 -1.008,0.189 -0.322,0.126 -0.609,0.322 -0.861,0.588 -0.252,0.266 -0.451,0.595 -0.598,0.987 -0.147,0.392 -0.221,0.861 -0.221,1.407 v 6.972 h -1.26 z"
   id="path582" />
	<path
   fill="#9d9d9c"
   d="m 314.955,276.896 c -0.098,1.736 -0.525,3.059 -1.281,3.969 -0.756,0.91 -1.813,1.365 -3.171,1.365 -1.54,0 -2.723,-0.62 -3.549,-1.858 -0.826,-1.239 -1.239,-3.203 -1.239,-5.891 0,-2.688 0.413,-4.651 1.239,-5.891 0.826,-1.239 2.009,-1.858 3.549,-1.858 0.756,0 1.407,0.126 1.953,0.378 0.546,0.252 0.994,0.588 1.344,1.008 0.35,0.42 0.605,0.91 0.767,1.47 0.161,0.56 0.242,1.148 0.242,1.764 h -1.344 c 0,-1.022 -0.252,-1.858 -0.756,-2.51 -0.504,-0.651 -1.239,-0.976 -2.205,-0.976 -0.532,0 -1.012,0.115 -1.438,0.346 -0.427,0.231 -0.788,0.609 -1.082,1.134 -0.294,0.525 -0.521,1.208 -0.682,2.047 -0.161,0.84 -0.242,1.869 -0.242,3.087 0,1.218 0.081,2.247 0.242,3.087 0.161,0.84 0.388,1.522 0.682,2.048 0.294,0.525 0.654,0.903 1.082,1.134 0.427,0.231 0.906,0.347 1.438,0.347 0.966,0 1.708,-0.371 2.226,-1.113 0.518,-0.742 0.812,-1.771 0.882,-3.087 z"
   id="path584" />
	<path
   fill="#9d9d9c"
   d="m 316.865,266.983 h 1.26 v 14.994 h -1.26 z"
   id="path586" />
	<path
   fill="#9d9d9c"
   d="m 320.729,266.983 h 1.26 v 2.142 h -1.26 z m 0,3.844 h 1.26 v 11.151 h -1.26 z"
   id="path588" />
	<path
   fill="#9d9d9c"
   d="m 324.593,270.827 h 1.134 v 1.554 h 0.042 c 0.294,-0.63 0.683,-1.088 1.166,-1.375 0.483,-0.287 1.04,-0.43 1.669,-0.43 0.672,0 1.208,0.178 1.606,0.535 0.398,0.357 0.641,0.83 0.725,1.417 h 0.042 c 0.252,-0.63 0.609,-1.113 1.071,-1.449 0.462,-0.336 1.05,-0.504 1.764,-0.504 0.798,0 1.428,0.228 1.89,0.682 0.462,0.455 0.693,1.187 0.693,2.195 v 8.526 h -1.26 v -8.337 c 0,-1.344 -0.582,-2.016 -1.743,-2.016 -0.322,0 -0.62,0.066 -0.893,0.2 -0.273,0.133 -0.511,0.325 -0.714,0.577 -0.203,0.252 -0.364,0.553 -0.483,0.903 -0.119,0.35 -0.179,0.742 -0.179,1.176 v 7.497 h -1.26 v -8.337 c 0,-1.344 -0.582,-2.016 -1.743,-2.016 -0.322,0 -0.62,0.066 -0.893,0.2 -0.273,0.133 -0.511,0.325 -0.714,0.577 -0.203,0.252 -0.364,0.553 -0.483,0.903 -0.119,0.35 -0.179,0.742 -0.179,1.176 v 7.497 h -1.26 v -11.151 z"
   id="path590" />
	<path
   fill="#9d9d9c"
   d="m 338.684,274.145 c 0,-1.148 0.276,-2.03 0.83,-2.646 0.553,-0.616 1.424,-0.924 2.615,-0.924 1.147,0 1.96,0.273 2.436,0.819 0.476,0.546 0.714,1.26 0.714,2.142 v 6.594 c 0,0.616 0.217,0.924 0.651,0.924 h 0.357 v 0.924 c -0.238,0.084 -0.434,0.126 -0.588,0.126 -0.49,0 -0.882,-0.087 -1.176,-0.263 -0.294,-0.175 -0.441,-0.549 -0.441,-1.123 v -0.378 h -0.042 c -0.126,0.364 -0.287,0.669 -0.483,0.914 -0.196,0.245 -0.42,0.441 -0.672,0.588 -0.252,0.147 -0.525,0.249 -0.819,0.305 -0.294,0.056 -0.595,0.084 -0.903,0.084 -0.98,0 -1.698,-0.284 -2.152,-0.851 -0.455,-0.567 -0.683,-1.333 -0.683,-2.299 0,-0.756 0.175,-1.403 0.525,-1.942 0.35,-0.539 0.924,-0.92 1.722,-1.145 l 2.373,-0.672 c 0.224,-0.056 0.406,-0.119 0.546,-0.189 0.14,-0.07 0.249,-0.168 0.326,-0.294 0.077,-0.126 0.129,-0.29 0.157,-0.493 0.028,-0.203 0.042,-0.465 0.042,-0.788 0,-0.714 -0.175,-1.214 -0.525,-1.501 -0.35,-0.287 -0.819,-0.431 -1.407,-0.431 -0.756,0 -1.302,0.217 -1.638,0.651 -0.336,0.434 -0.504,1.057 -0.504,1.869 h -1.261 z m 5.334,1.533 h -0.042 c -0.07,0.196 -0.249,0.35 -0.535,0.462 -0.287,0.112 -0.557,0.203 -0.809,0.273 l -1.05,0.273 c -0.63,0.168 -1.106,0.427 -1.428,0.777 -0.322,0.35 -0.483,0.861 -0.483,1.533 0,0.672 0.157,1.204 0.472,1.596 0.315,0.393 0.746,0.588 1.292,0.588 0.77,0 1.393,-0.273 1.869,-0.819 0.476,-0.546 0.714,-1.323 0.714,-2.331 z"
   id="path592" />
	<path
   fill="#9d9d9c"
   d="m 348.407,271.876 h -1.533 v -1.05 h 1.533 v -3.087 h 1.26 v 3.087 h 1.974 v 1.05 h -1.974 v 8.001 c 0,0.448 0.098,0.756 0.294,0.924 0.196,0.168 0.497,0.252 0.903,0.252 0.238,0 0.497,-0.042 0.777,-0.126 v 1.05 c -0.154,0.084 -0.448,0.126 -0.882,0.126 -0.854,0 -1.46,-0.14 -1.817,-0.42 -0.357,-0.28 -0.535,-0.791 -0.535,-1.533 z"
   id="path594" />
	<path
   fill="#9d9d9c"
   d="m 359.873,278.282 c -0.098,1.19 -0.458,2.146 -1.082,2.866 -0.623,0.721 -1.459,1.082 -2.509,1.082 -0.588,0 -1.113,-0.108 -1.575,-0.326 -0.462,-0.217 -0.854,-0.556 -1.176,-1.018 -0.322,-0.462 -0.567,-1.064 -0.735,-1.806 -0.168,-0.742 -0.252,-1.638 -0.252,-2.688 0,-1.96 0.333,-3.419 0.998,-4.378 0.665,-0.959 1.613,-1.438 2.846,-1.438 1.231,0 2.138,0.438 2.719,1.313 0.581,0.875 0.872,2.244 0.872,4.105 v 0.462 h -6.09 v 0.525 c 0,0.798 0.066,1.467 0.199,2.005 0.133,0.539 0.308,0.974 0.525,1.302 0.217,0.329 0.469,0.56 0.756,0.693 0.287,0.133 0.584,0.2 0.893,0.2 1.357,0 2.142,-0.966 2.352,-2.898 h 1.259 z m -1.239,-2.878 c -0.028,-1.386 -0.238,-2.362 -0.63,-2.929 -0.392,-0.567 -0.973,-0.851 -1.743,-0.851 -0.784,0 -1.373,0.284 -1.764,0.851 -0.392,0.567 -0.595,1.543 -0.609,2.929 z"
   id="path596" />
</g>
<rect
   x="39.325008"
   y="0.98599243"
   width="1"
   height="15.529"
   id="rect600" />
</svg>
