<?xml version="1.0" encoding="utf-8"?>
<!-- Generator: Adobe Illustrator 16.0.3, SVG Export Plug-In . SVG Version: 6.00 Build 0)  -->
<!DOCTYPE svg PUBLIC "-//W3C//DTD SVG 1.1//EN" "http://www.w3.org/Graphics/SVG/1.1/DTD/svg11.dtd">
<svg version="1.1" id="Ebene_1" xmlns="http://www.w3.org/2000/svg" xmlns:xlink="http://www.w3.org/1999/xlink" x="0px" y="0px"
	 width="841.89px" height="595.28px" viewBox="0 0 841.89 595.28" enable-background="new 0 0 841.89 595.28" xml:space="preserve">
<rect x="374.659" y="216.294" fill="#FFFFFF" width="345.945" height="90.709"/>
<g>
	<path fill="#9D9D9C" d="M646.788,283.146h4.346v-9.113h2.322c1.75,0,2.506,1.027,2.566,2.717l0.121,4.135
		c0.029,0.844,0.119,1.658,0.543,2.262h4.707v-0.18c-0.814-0.424-0.936-1.6-0.967-3.863c-0.059-4.557-0.512-6.188-3.469-6.578
		v-0.061c2.443-0.514,3.59-2.443,3.59-5.311c0-3.682-2.172-5.553-5.732-5.553h-8.027V283.146z M651.134,264.8h2.053
		c1.961,0,3.018,0.996,3.018,2.986c0,2.324-1.178,3.229-3.26,3.229h-1.811V264.8z"/>
	<path fill="#9D9D9C" d="M582.726,261.601v15.027c0,5.764,3.35,6.941,6.879,6.941c3.531,0,6.881-1.449,6.881-6.941v-15.027h-4.346
		v15.027c0,2.143-0.512,3.742-2.535,3.742c-2.021,0-2.533-1.6-2.533-3.742v-15.027H582.726z"/>
</g>
<polygon fill="#9D9D9C" points="597.55,261.601 597.55,283.146 601.532,283.146 601.532,268.058 601.593,268.058 606.903,283.146 
	611.853,283.146 611.853,261.601 607.868,261.601 607.868,276.356 607.81,276.356 602.558,261.601 "/>
<rect x="612.97" y="261.601" fill="#9D9D9C" width="4.344" height="21.545"/>
<polygon fill="#9D9D9C" points="617.612,261.601 622.562,283.146 628.144,283.146 633.091,261.601 628.597,261.601 625.397,277.534 
	625.308,277.534 622.259,261.601 "/>
<polygon fill="#9D9D9C" points="633.479,261.601 633.479,283.146 645.821,283.146 645.821,279.585 637.825,279.585 637.825,273.792 
	645.067,273.792 645.067,270.229 637.825,270.229 637.825,265.161 645.519,265.161 645.519,261.601 "/>
<g>
	<path fill="#9D9D9C" d="M660.909,276.417v0.875c0,3.984,1.932,6.277,6.85,6.277c4.707,0,7.482-2.053,7.482-6.609
		c0-2.625-0.844-4.285-4.104-5.703l-3.35-1.447c-1.84-0.785-2.232-1.6-2.232-2.928c0-1.268,0.514-2.506,2.475-2.506
		c1.658,0,2.354,1.178,2.354,3.199h4.164v-0.604c0-4.135-2.807-5.793-6.668-5.793c-4.105,0-6.67,2.143-6.67,6.336
		c0,3.592,1.781,5.191,5.643,6.518c2.867,0.996,3.863,1.721,3.863,3.682c0,1.811-1.268,2.656-2.596,2.656
		c-2.293,0-2.865-1.297-2.865-3.32v-0.633H660.909z"/>
</g>
<rect x="675.81" y="261.601" fill="#9D9D9C" width="4.346" height="21.545"/>
<polygon fill="#9D9D9C" points="702.726,261.601 699.706,269.929 699.647,269.929 696.812,261.601 680.726,261.601 680.726,265.161 
	685.433,265.161 685.433,283.146 689.778,283.146 689.778,265.161 693.442,265.161 697.503,274.667 697.503,283.146 
	701.851,283.146 701.851,274.667 707.433,261.601 "/>
<g>
	<path d="M544.554,259.641h-0.275h-6.924v-2.438v-19.043V238h6.91h0.014h4.883c3.201-0.001,5.963,2.071,6.863,4.819
		c0.834,2.547,0.121,5.313-1.76,7.281c0.25,0.678,0.494,1.209,0.725,1.818c0.523,1.205,1.002,2.41,1.525,3.6l1.713,4.122h-0.045
		h-7.256c0,0.005-0.059-0.174-0.117-0.247c-0.289-0.638-0.551-1.32-0.842-1.959l-1.756-4.166c-0.697-1.684-1.395-3.275-2.09-4.957
		c0.869-0.025,1.52,0.139,2.357-0.248c0.59-0.289,1.484-1.011,1.508-2.394c-0.023-0.685-0.213-1.204-0.666-1.744
		c-0.455-0.502-1.113-0.874-1.971-0.886c0,0-2.797-0.001-2.797,0V259.641z"/>
	<path d="M619.759,237.999v21.642h-5.621h-1.578v-8.824h-0.672h-4.311h-0.059v8.824c-1.307,0-2.715-0.015-4.02,0h-3.18v-16.634
		h-5.037v0.523v1.566v7.127v7.417h-0.057h-7.143v-8.97v-0.348v-7.316h-5.08v7.853v8.781h-7.416c-1.293-3.12-2.656-6.271-3.92-9.376
		c-0.145-0.653-0.289-1.307-0.479-1.945v11.321h-7.432c-1.473-3.425-2.889-6.782-4.357-10.259c-0.508-1.203-0.926-2.184-1.451-3.436
		l-0.072-0.164l-1.145-2.685l-1.639-3.835c-0.143-0.436-0.375-0.828-0.521-1.264h7.416c1.523,3.701,3.061,7.359,4.658,11.002
		l0.045,0.088c-0.059-0.422-0.191-0.959-0.264-1.364v-6.459c0.016-1.031,0-2.207,0-3.267h7.432c0.094,0.236,0.146,0.363,0.219,0.553
		c0.871,2.046,1.699,4.078,2.57,6.109l1.943,4.428c-0.043-0.465-0.145-0.914-0.203-1.364v-9.726h0.596h5.051h18.289h5.195v1.351
		v6.459h0.35h4.691v-7.81h3.756H619.759z"/>
</g>
<path fill="#9D9D9C" d="M640.644,251.486l2.094-9.729h0.059l2.092,9.729H640.644z M626.218,251.486l2.09-9.729h0.061l2.092,9.729
	H626.218z M645.464,237.997h-5.396l-4.516,17.06l-4.516-17.06h-5.396l-5.729,21.644h4.547l1-4.577h5.762l0.998,4.577h6.668l1-4.577
	h5.76l1,4.577h4.547L645.464,237.997z"/>
<g>
	<path fill="#9D9D9C" d="M664.192,245.382c0-3.137-0.451-7.694-6.668-7.694c-6.518,0-7.334,4.647-7.334,11.194
		c0,6.549,0.816,11.195,7.334,11.195c5.703,0,6.85-4.013,6.85-8.66h-4.346c0,4.647-1.146,5.463-2.715,5.463
		c-1.871,0-2.777-1.178-2.777-7.695c0-6.096,0.514-8.299,2.717-8.299c1.961,0,2.596,1.359,2.596,4.496H664.192z"/>
</g>
<polygon fill="#9D9D9C" points="665.231,259.641 669.597,259.641 669.597,250.032 674.688,250.032 674.688,259.641 679.054,259.641 
	679.054,238 674.688,238 674.688,246.274 669.597,246.274 669.597,238 665.231,238 "/>
<polygon fill="#9D9D9C" points="679.999,237.995 679.999,259.641 692.399,259.641 692.399,256.063 684.366,256.063 684.366,250.243 
	691.642,250.243 691.642,246.665 684.366,246.665 684.366,241.573 692.095,241.573 692.095,237.995 "/>
<polygon fill="#9D9D9C" points="693.048,238 693.048,259.641 697.048,259.641 697.048,244.485 697.108,244.485 702.442,259.641 
	707.413,259.641 707.413,238 703.413,238 703.413,252.821 703.353,252.821 698.077,238 "/>
<rect x="522.68" y="237.97" width="1" height="45.355"/>
<rect x="431.807" y="237.972" fill="#E63323" width="35.229" height="5.246"/>
<rect x="431.807" y="249.589" fill="#E63323" width="35.229" height="5.246"/>
<rect x="431.807" y="261.206" fill="#E63323" width="35.229" height="5.248"/>
<rect x="473.778" y="237.972" fill="#E63323" width="35.229" height="5.246"/>
<rect x="473.778" y="249.589" fill="#E63323" width="35.229" height="5.246"/>
<rect x="389.833" y="237.972" fill="#E63323" width="35.229" height="28.482"/>
<g>
	<path fill="#E63323" d="M506.092,283.343h1.422v-3.328c0-0.186,0.031-0.342,0.092-0.471c0.063-0.127,0.145-0.229,0.248-0.309
		c0.104-0.078,0.216-0.135,0.34-0.17c0.123-0.033,0.247-0.051,0.371-0.051c0.075,0,0.148,0.002,0.221,0.006
		c0.072,0.002,0.146,0.008,0.223,0.014v-1.359c-0.041-0.008-0.084-0.012-0.129-0.016s-0.088-0.006-0.129-0.006
		c-0.295,0-0.547,0.082-0.752,0.244c-0.207,0.16-0.381,0.375-0.526,0.643h-0.021v-0.74h-1.359V283.343z M502.5,279.942v-0.217
		c0-0.131,0.012-0.26,0.035-0.393c0.024-0.129,0.064-0.248,0.119-0.354c0.055-0.107,0.129-0.193,0.221-0.258
		c0.094-0.066,0.213-0.1,0.356-0.1s0.263,0.029,0.354,0.088c0.094,0.059,0.166,0.145,0.217,0.258
		c0.052,0.113,0.088,0.252,0.109,0.412c0.021,0.162,0.033,0.35,0.041,0.563H502.5z M505.313,280.786v-0.318
		c0-0.426-0.027-0.813-0.082-1.16c-0.055-0.346-0.158-0.643-0.309-0.887c-0.151-0.242-0.359-0.432-0.625-0.566
		c-0.264-0.133-0.602-0.201-1.014-0.201c-0.482,0-0.865,0.08-1.154,0.238s-0.51,0.371-0.666,0.639
		c-0.153,0.268-0.256,0.574-0.309,0.918c-0.051,0.342-0.076,0.699-0.076,1.07c0,0.344,0.016,0.693,0.045,1.047
		c0.031,0.354,0.115,0.674,0.254,0.959c0.137,0.285,0.35,0.516,0.639,0.695c0.287,0.178,0.689,0.268,1.206,0.268
		c0.68,0,1.178-0.174,1.493-0.52c0.316-0.348,0.488-0.844,0.516-1.49h-1.277c-0.041,0.35-0.117,0.611-0.228,0.783
		c-0.108,0.172-0.285,0.258-0.524,0.258c-0.132,0-0.242-0.037-0.33-0.109c-0.09-0.072-0.162-0.168-0.217-0.287
		c-0.055-0.121-0.095-0.258-0.119-0.412c-0.023-0.154-0.035-0.314-0.035-0.48v-0.443H505.313z M498.457,277.8h-0.723v0.967h0.723
		v3.174c0,0.283,0.017,0.516,0.051,0.701c0.033,0.186,0.098,0.336,0.19,0.449s0.226,0.193,0.396,0.242
		c0.173,0.047,0.4,0.072,0.682,0.072c0.164,0,0.321-0.008,0.469-0.021s0.301-0.027,0.459-0.041v-0.988
		c-0.049,0.006-0.101,0.012-0.156,0.014c-0.055,0.004-0.109,0.006-0.164,0.006c-0.207,0-0.342-0.047-0.406-0.139
		c-0.066-0.094-0.098-0.25-0.098-0.469v-3h0.824V277.8h-0.824v-1.588h-1.422V277.8z M492.955,283.343h1.422v-3.68
		c0-0.609,0.25-0.916,0.752-0.916c0.213,0,0.367,0.057,0.463,0.17c0.097,0.113,0.145,0.314,0.145,0.604v3.822h1.422v-4.111
		c0-0.557-0.121-0.959-0.365-1.207c-0.244-0.246-0.592-0.371-1.047-0.371c-0.309,0-0.584,0.064-0.824,0.191
		s-0.437,0.328-0.588,0.604h-0.02V277.8h-1.359V283.343z M489.362,279.942v-0.217c0-0.131,0.013-0.26,0.036-0.393
		c0.023-0.129,0.064-0.248,0.119-0.354c0.055-0.107,0.129-0.193,0.221-0.258c0.094-0.066,0.213-0.1,0.355-0.1
		c0.145,0,0.264,0.029,0.355,0.088c0.094,0.059,0.165,0.145,0.217,0.258c0.051,0.113,0.088,0.252,0.108,0.412
		c0.021,0.162,0.034,0.35,0.041,0.563H489.362z M492.176,280.786v-0.318c0-0.426-0.027-0.813-0.082-1.16
		c-0.055-0.346-0.158-0.643-0.309-0.887c-0.152-0.242-0.359-0.432-0.625-0.566c-0.264-0.133-0.602-0.201-1.015-0.201
		c-0.481,0-0.865,0.08-1.153,0.238c-0.289,0.158-0.511,0.371-0.664,0.639c-0.156,0.268-0.259,0.574-0.311,0.918
		c-0.051,0.342-0.077,0.699-0.077,1.07c0,0.344,0.017,0.693,0.046,1.047c0.031,0.354,0.115,0.674,0.253,0.959
		s0.351,0.516,0.64,0.695c0.287,0.178,0.689,0.268,1.205,0.268c0.681,0,1.179-0.174,1.494-0.52c0.316-0.348,0.488-0.844,0.516-1.49
		h-1.278c-0.041,0.35-0.117,0.611-0.226,0.783c-0.11,0.172-0.287,0.258-0.526,0.258c-0.131,0-0.241-0.037-0.33-0.109
		s-0.161-0.168-0.216-0.287c-0.055-0.121-0.096-0.258-0.119-0.412s-0.036-0.314-0.036-0.48v-0.443H492.176z M487.227,278.47
		c0-0.27-0.02-0.557-0.057-0.861c-0.037-0.307-0.133-0.592-0.283-0.855c-0.151-0.266-0.381-0.482-0.686-0.654
		c-0.306-0.172-0.723-0.258-1.252-0.258c-0.557,0-1,0.094-1.33,0.283s-0.582,0.451-0.757,0.787c-0.175,0.338-0.289,0.742-0.34,1.211
		c-0.052,0.473-0.078,0.984-0.078,1.541s0.026,1.07,0.078,1.541c0.051,0.471,0.165,0.875,0.34,1.211s0.427,0.6,0.757,0.789
		s0.773,0.283,1.33,0.283c0.487,0,0.885-0.08,1.19-0.238c0.305-0.156,0.543-0.371,0.711-0.643s0.282-0.586,0.345-0.943
		s0.094-0.734,0.094-1.133h-1.484c0,0.398-0.024,0.719-0.072,0.963s-0.113,0.434-0.195,0.566c-0.082,0.135-0.181,0.223-0.295,0.268
		c-0.113,0.045-0.234,0.068-0.365,0.068c-0.158,0-0.297-0.033-0.418-0.1c-0.119-0.064-0.22-0.191-0.299-0.381
		c-0.078-0.188-0.137-0.455-0.175-0.799c-0.038-0.342-0.058-0.793-0.058-1.35c0-0.521,0.015-0.963,0.043-1.324
		c0.027-0.361,0.074-0.652,0.144-0.875c0.068-0.223,0.163-0.385,0.283-0.484s0.272-0.15,0.459-0.15c0.336,0,0.567,0.123,0.694,0.367
		c0.129,0.242,0.191,0.633,0.191,1.17H487.227z M475.037,283.343h1.422v-3.68c0-0.609,0.25-0.916,0.752-0.916
		c0.213,0,0.367,0.057,0.465,0.17c0.096,0.113,0.144,0.314,0.144,0.604v3.822h1.423v-4.111c0-0.557-0.123-0.959-0.367-1.207
		c-0.244-0.246-0.592-0.371-1.045-0.371c-0.625,0-1.076,0.238-1.351,0.713h-0.021v-2.381h-1.422V283.343z M474.272,279.798
		c0-0.66-0.167-1.182-0.5-1.566s-0.829-0.578-1.489-0.578c-0.33,0-0.632,0.045-0.906,0.135c-0.275,0.09-0.513,0.246-0.711,0.469
		c-0.199,0.225-0.354,0.521-0.465,0.896c-0.109,0.375-0.164,0.848-0.164,1.418c0,0.555,0.045,1.021,0.133,1.396
		c0.09,0.375,0.223,0.674,0.397,0.896s0.396,0.383,0.66,0.479s0.575,0.145,0.933,0.145c0.756,0,1.297-0.197,1.623-0.588
		s0.489-0.951,0.489-1.68h-1.36c0,0.453-0.055,0.783-0.164,0.988c-0.11,0.207-0.285,0.311-0.526,0.311
		c-0.158,0-0.287-0.037-0.386-0.109c-0.101-0.072-0.178-0.186-0.232-0.344s-0.094-0.359-0.113-0.604
		c-0.021-0.244-0.031-0.537-0.031-0.881c0-0.316,0.01-0.594,0.031-0.836c0.02-0.24,0.059-0.438,0.113-0.592s0.136-0.27,0.242-0.35
		c0.107-0.078,0.248-0.119,0.428-0.119c0.13,0,0.238,0.033,0.324,0.098c0.086,0.066,0.15,0.152,0.195,0.258
		c0.045,0.107,0.076,0.227,0.094,0.361c0.017,0.133,0.025,0.266,0.025,0.396H474.272z M466.719,283.343h1.423v-3.328
		c0-0.186,0.03-0.342,0.093-0.471c0.063-0.127,0.145-0.229,0.248-0.309c0.104-0.078,0.216-0.135,0.34-0.17
		c0.123-0.033,0.247-0.051,0.371-0.051c0.075,0,0.148,0.002,0.221,0.006c0.072,0.002,0.146,0.008,0.223,0.014v-1.359
		c-0.041-0.008-0.084-0.012-0.129-0.016s-0.088-0.006-0.129-0.006c-0.295,0-0.547,0.082-0.752,0.244
		c-0.207,0.16-0.381,0.375-0.526,0.643h-0.021v-0.74h-1.361V283.343z M464.373,281.663c0,0.158-0.027,0.289-0.082,0.396
		c-0.056,0.107-0.125,0.193-0.211,0.264c-0.086,0.068-0.181,0.117-0.283,0.148c-0.104,0.031-0.203,0.047-0.299,0.047
		c-0.192,0-0.33-0.076-0.412-0.227c-0.084-0.15-0.125-0.334-0.125-0.547c0-0.248,0.063-0.443,0.187-0.588
		c0.123-0.143,0.329-0.246,0.618-0.309c0.089-0.021,0.189-0.053,0.299-0.098s0.213-0.105,0.309-0.18V281.663z M463.055,279.499
		v-0.154c0-0.221,0.055-0.395,0.164-0.525c0.111-0.131,0.275-0.197,0.494-0.197c0.242,0,0.412,0.061,0.512,0.182
		c0.099,0.121,0.148,0.287,0.148,0.5c0,0.186-0.041,0.326-0.123,0.422s-0.23,0.172-0.443,0.227l-0.805,0.217
		c-0.246,0.068-0.457,0.148-0.633,0.236c-0.176,0.09-0.32,0.201-0.433,0.336c-0.114,0.133-0.198,0.295-0.253,0.484
		c-0.055,0.188-0.082,0.414-0.082,0.674c0,0.186,0.023,0.373,0.072,0.563c0.048,0.189,0.123,0.359,0.227,0.51
		s0.24,0.275,0.412,0.371s0.381,0.145,0.629,0.145c0.344,0,0.623-0.049,0.839-0.145c0.218-0.096,0.408-0.289,0.572-0.576h0.021
		c0.021,0.096,0.043,0.193,0.067,0.293s0.06,0.193,0.108,0.283h1.359c-0.068-0.164-0.115-0.32-0.139-0.465
		c-0.023-0.143-0.036-0.346-0.036-0.607v-2.916c0-0.248-0.024-0.477-0.077-0.686c-0.052-0.209-0.148-0.389-0.294-0.541
		c-0.144-0.15-0.348-0.268-0.612-0.35s-0.606-0.125-1.025-0.125c-0.268,0-0.521,0.031-0.758,0.088
		c-0.237,0.059-0.443,0.156-0.618,0.289c-0.175,0.135-0.313,0.313-0.417,0.531s-0.155,0.488-0.155,0.803v0.135H463.055z
		 M458.235,279.942v-0.217c0-0.131,0.013-0.26,0.036-0.393c0.023-0.129,0.064-0.248,0.119-0.354
		c0.055-0.107,0.129-0.193,0.221-0.258c0.094-0.066,0.212-0.1,0.355-0.1c0.145,0,0.264,0.029,0.355,0.088
		c0.094,0.059,0.165,0.145,0.217,0.258c0.051,0.113,0.088,0.252,0.108,0.412c0.021,0.162,0.034,0.35,0.041,0.563H458.235z
		 M461.049,280.786v-0.318c0-0.426-0.027-0.813-0.082-1.16c-0.055-0.346-0.158-0.643-0.309-0.887
		c-0.152-0.242-0.359-0.432-0.623-0.566c-0.266-0.133-0.604-0.201-1.017-0.201c-0.481,0-0.865,0.08-1.154,0.238
		c-0.288,0.158-0.51,0.371-0.663,0.639c-0.156,0.268-0.259,0.574-0.311,0.918c-0.051,0.342-0.077,0.699-0.077,1.07
		c0,0.344,0.017,0.693,0.046,1.047c0.031,0.354,0.115,0.674,0.253,0.959s0.351,0.516,0.64,0.695
		c0.287,0.178,0.689,0.268,1.205,0.268c0.681,0,1.178-0.174,1.494-0.52c0.316-0.348,0.488-0.844,0.516-1.49h-1.278
		c-0.041,0.35-0.117,0.611-0.226,0.783c-0.11,0.172-0.287,0.258-0.526,0.258c-0.131,0-0.241-0.037-0.33-0.109
		s-0.161-0.168-0.216-0.287c-0.055-0.121-0.096-0.258-0.119-0.412s-0.036-0.314-0.036-0.48v-0.443H461.049z M452.162,281.528v0.197
		c0,0.268,0.03,0.51,0.092,0.727c0.063,0.215,0.17,0.4,0.326,0.557c0.153,0.154,0.361,0.271,0.623,0.355
		c0.26,0.082,0.594,0.123,1,0.123c0.295,0,0.569-0.037,0.823-0.109c0.254-0.07,0.474-0.18,0.655-0.324s0.324-0.326,0.427-0.545
		c0.103-0.221,0.155-0.475,0.155-0.764c0-0.418-0.094-0.75-0.278-0.994c-0.187-0.244-0.502-0.441-0.948-0.592l-0.855-0.289
		c-0.24-0.076-0.403-0.168-0.489-0.277c-0.086-0.111-0.129-0.234-0.129-0.371c0-0.199,0.067-0.35,0.201-0.449s0.29-0.15,0.469-0.15
		c0.233,0,0.397,0.068,0.489,0.201c0.093,0.135,0.139,0.346,0.139,0.635h1.278v-0.227c0-0.502-0.154-0.889-0.464-1.164
		c-0.309-0.275-0.786-0.414-1.432-0.414c-0.365,0-0.676,0.045-0.933,0.135c-0.259,0.09-0.47,0.209-0.634,0.361
		c-0.165,0.15-0.285,0.328-0.361,0.531s-0.113,0.416-0.113,0.643c0,0.393,0.1,0.713,0.299,0.963
		c0.199,0.252,0.494,0.445,0.887,0.584l0.999,0.359c0.138,0.055,0.258,0.129,0.36,0.223c0.104,0.092,0.155,0.229,0.155,0.406
		c0,0.221-0.065,0.385-0.196,0.496c-0.131,0.109-0.306,0.164-0.525,0.164c-0.24,0-0.424-0.074-0.551-0.223
		c-0.127-0.146-0.191-0.342-0.191-0.58v-0.188H452.162z M448.803,279.942v-0.217c0-0.131,0.012-0.26,0.035-0.393
		c0.024-0.129,0.064-0.248,0.119-0.354c0.056-0.107,0.129-0.193,0.221-0.258c0.094-0.066,0.212-0.1,0.357-0.1
		c0.143,0,0.262,0.029,0.354,0.088s0.165,0.145,0.217,0.258s0.087,0.252,0.108,0.412c0.02,0.162,0.033,0.35,0.041,0.563H448.803z
		 M451.615,280.786v-0.318c0-0.426-0.027-0.813-0.082-1.16c-0.055-0.346-0.158-0.643-0.309-0.887
		c-0.151-0.242-0.359-0.432-0.624-0.566c-0.265-0.133-0.603-0.201-1.015-0.201c-0.481,0-0.865,0.08-1.154,0.238
		s-0.51,0.371-0.665,0.639c-0.154,0.268-0.257,0.574-0.31,0.918c-0.051,0.342-0.076,0.699-0.076,1.07
		c0,0.344,0.015,0.693,0.045,1.047c0.031,0.354,0.115,0.674,0.254,0.959c0.137,0.285,0.35,0.516,0.639,0.695
		c0.288,0.178,0.689,0.268,1.205,0.268c0.682,0,1.18-0.174,1.495-0.52c0.315-0.348,0.487-0.844,0.515-1.49h-1.277
		c-0.041,0.35-0.117,0.611-0.228,0.783s-0.284,0.258-0.524,0.258c-0.131,0-0.241-0.037-0.33-0.109
		c-0.09-0.072-0.161-0.168-0.217-0.287c-0.055-0.121-0.095-0.258-0.119-0.412c-0.023-0.154-0.035-0.314-0.035-0.48v-0.443H451.615z
		 M443.41,277.077h0.7c0.687,0,1.031,0.34,1.031,1.021c0,0.396-0.097,0.68-0.289,0.85c-0.192,0.168-0.468,0.252-0.824,0.252h-0.618
		V277.077z M441.926,283.343h1.484v-3.111h0.783c0.307,0,0.523,0.082,0.652,0.246c0.129,0.166,0.199,0.393,0.214,0.68l0.04,1.412
		c0.007,0.145,0.021,0.283,0.042,0.418c0.021,0.133,0.069,0.252,0.146,0.355h1.627v-0.063c-0.138-0.074-0.226-0.215-0.264-0.422
		s-0.061-0.504-0.066-0.896c-0.008-0.393-0.025-0.721-0.057-0.988c-0.031-0.27-0.088-0.49-0.17-0.666
		c-0.083-0.174-0.199-0.309-0.352-0.402c-0.15-0.092-0.354-0.156-0.607-0.189v-0.021c0.419-0.088,0.729-0.289,0.928-0.602
		c0.199-0.314,0.299-0.717,0.299-1.213c0-0.639-0.172-1.113-0.516-1.426c-0.343-0.313-0.824-0.469-1.441-0.469h-2.742V283.343z
		 M434.94,285.157h0.577c0.33,0,0.604-0.025,0.82-0.072c0.215-0.049,0.4-0.15,0.556-0.305s0.31-0.43,0.464-0.824
		s0.252-0.723,0.293-0.984l1.34-5.172h-1.422l-0.721,3.832h-0.021l-0.824-3.832h-1.483l1.556,5.543
		c-0.021,0.248-0.088,0.439-0.201,0.576c-0.113,0.139-0.301,0.207-0.562,0.207c-0.123,0-0.247-0.01-0.371-0.031V285.157z
		 M432.549,277.8v0.617h-0.02c-0.138-0.289-0.313-0.488-0.525-0.598s-0.42-0.166-0.619-0.166c-0.385,0-0.691,0.086-0.922,0.258
		s-0.405,0.395-0.525,0.666s-0.199,0.574-0.236,0.912c-0.039,0.336-0.058,0.666-0.058,0.988c0,1.01,0.144,1.73,0.428,2.16
		c0.285,0.428,0.709,0.643,1.272,0.643c0.227,0,0.445-0.061,0.654-0.184c0.211-0.125,0.387-0.289,0.531-0.496h0.02v0.732
		c0,0.287-0.057,0.527-0.174,0.717c-0.117,0.188-0.319,0.281-0.608,0.281c-0.089,0-0.173-0.014-0.252-0.041
		s-0.153-0.064-0.222-0.111c-0.145-0.104-0.217-0.244-0.217-0.424h-1.361c0,0.475,0.164,0.84,0.49,1.098s0.793,0.387,1.396,0.387
		c0.831,0,1.424-0.178,1.777-0.531c0.354-0.354,0.531-0.9,0.531-1.643V277.8H432.549z M431.092,279.804
		c0.017-0.26,0.053-0.465,0.107-0.619s0.131-0.266,0.227-0.334c0.097-0.07,0.224-0.104,0.382-0.104c0.282,0,0.476,0.141,0.583,0.422
		c0.105,0.281,0.158,0.76,0.158,1.434c0,0.232-0.012,0.447-0.035,0.643c-0.024,0.197-0.065,0.363-0.123,0.5
		c-0.059,0.139-0.139,0.246-0.237,0.324c-0.101,0.08-0.226,0.119-0.377,0.119s-0.272-0.039-0.364-0.119
		c-0.094-0.078-0.166-0.184-0.218-0.318c-0.051-0.135-0.086-0.287-0.103-0.459c-0.018-0.172-0.026-0.354-0.026-0.547
		C431.065,280.374,431.074,280.062,431.092,279.804 M426.254,283.343h1.422v-3.328c0-0.186,0.031-0.342,0.094-0.471
		c0.063-0.127,0.145-0.229,0.247-0.309c0.103-0.078,0.217-0.135,0.34-0.17c0.124-0.033,0.248-0.051,0.371-0.051
		c0.075,0,0.149,0.002,0.222,0.006c0.072,0.002,0.146,0.008,0.221,0.014v-1.359c-0.041-0.008-0.084-0.012-0.127-0.016
		c-0.045-0.004-0.088-0.006-0.129-0.006c-0.297,0-0.547,0.082-0.754,0.244c-0.205,0.16-0.381,0.375-0.525,0.643h-0.021v-0.74h-1.36
		V283.343z M422.664,279.942v-0.217c0-0.131,0.012-0.26,0.035-0.393c0.024-0.129,0.063-0.248,0.118-0.354
		c0.056-0.107,0.129-0.193,0.222-0.258c0.094-0.066,0.211-0.1,0.355-0.1s0.264,0.029,0.355,0.088
		c0.094,0.059,0.166,0.145,0.217,0.258c0.052,0.113,0.088,0.252,0.107,0.412c0.021,0.162,0.035,0.35,0.043,0.563H422.664z
		 M425.477,280.786v-0.318c0-0.426-0.028-0.813-0.082-1.16c-0.057-0.346-0.159-0.643-0.311-0.887
		c-0.15-0.242-0.358-0.432-0.623-0.566c-0.265-0.133-0.603-0.201-1.015-0.201c-0.481,0-0.866,0.08-1.153,0.238
		c-0.289,0.158-0.51,0.371-0.666,0.639c-0.155,0.268-0.258,0.574-0.309,0.918c-0.052,0.342-0.077,0.699-0.077,1.07
		c0,0.344,0.015,0.693,0.046,1.047c0.031,0.354,0.115,0.674,0.252,0.959c0.138,0.285,0.351,0.516,0.638,0.695
		c0.289,0.178,0.691,0.268,1.207,0.268c0.68,0,1.178-0.174,1.494-0.52c0.315-0.348,0.488-0.844,0.516-1.49h-1.277
		c-0.043,0.35-0.117,0.611-0.228,0.783s-0.285,0.258-0.526,0.258c-0.13,0-0.24-0.037-0.328-0.109
		c-0.091-0.072-0.162-0.168-0.218-0.287c-0.055-0.121-0.094-0.258-0.118-0.412c-0.023-0.154-0.035-0.314-0.035-0.48v-0.443H425.477z
		 M416.253,283.343h1.422v-3.68c0-0.609,0.251-0.916,0.752-0.916c0.213,0,0.368,0.057,0.464,0.17
		c0.096,0.113,0.144,0.314,0.144,0.604v3.822h1.422v-4.111c0-0.557-0.122-0.959-0.365-1.207c-0.244-0.246-0.593-0.371-1.046-0.371
		c-0.31,0-0.585,0.064-0.825,0.191c-0.24,0.127-0.436,0.328-0.587,0.604h-0.021V277.8h-1.36V283.343z M411.303,275.985v7.357h4.215
		v-1.217h-2.731v-1.979h2.474v-1.215h-2.474V277.2h2.628v-1.215H411.303z M403.021,275.985v7.357h1.36v-5.152h0.021l1.813,5.152
		h1.69v-7.357h-1.36v5.039h-0.021l-1.793-5.039H403.021z M398.625,278.407c0.024-0.344,0.073-0.625,0.145-0.846
		c0.072-0.219,0.175-0.379,0.309-0.479c0.134-0.1,0.311-0.15,0.531-0.15c0.219,0,0.396,0.051,0.53,0.15
		c0.134,0.1,0.237,0.26,0.31,0.479c0.072,0.221,0.12,0.502,0.144,0.846c0.024,0.342,0.036,0.762,0.036,1.256
		c0,0.496-0.012,0.916-0.036,1.264c-0.024,0.346-0.072,0.629-0.144,0.844c-0.073,0.217-0.176,0.375-0.31,0.475
		c-0.134,0.1-0.311,0.15-0.53,0.15c-0.22,0-0.397-0.051-0.531-0.15c-0.134-0.1-0.237-0.258-0.309-0.475
		c-0.072-0.215-0.121-0.498-0.145-0.844c-0.024-0.348-0.036-0.768-0.036-1.264C398.588,279.169,398.601,278.749,398.625,278.407
		 M397.183,281.204c0.051,0.471,0.165,0.875,0.34,1.211s0.427,0.6,0.757,0.789c0.33,0.189,0.773,0.283,1.33,0.283
		c0.556,0,0.999-0.094,1.329-0.283s0.582-0.453,0.757-0.789c0.176-0.336,0.289-0.74,0.341-1.211
		c0.051-0.471,0.077-0.984,0.077-1.541s-0.026-1.068-0.077-1.541c-0.052-0.469-0.165-0.873-0.341-1.211
		c-0.175-0.336-0.427-0.598-0.757-0.787s-0.773-0.283-1.329-0.283c-0.557,0-1,0.094-1.33,0.283c-0.33,0.189-0.582,0.451-0.757,0.787
		c-0.175,0.338-0.289,0.742-0.34,1.211c-0.052,0.473-0.078,0.984-0.078,1.541S397.13,280.733,397.183,281.204 M394.967,283.343h1.36
		v-1.607h-1.36V283.343z M389.822,275.985v7.357h4.215v-1.217h-2.731v-1.979h2.473v-1.215h-2.473V277.2h2.628v-1.215H389.822z"/>
</g>
<rect x="374.417" y="237.589" width="1" height="45.355"/>
<g>
	<path fill="#9D9D9C" d="M109.346,238.783v2.478h-5.355v3.528h5.04v2.478h-5.04v4.032h5.565v2.478h-8.589v-14.994H109.346z"/>
	<path fill="#9D9D9C" d="M111.067,238.783h5.061c0.616,0,1.187,0.063,1.711,0.189c0.525,0.126,0.977,0.336,1.354,0.63
		c0.378,0.294,0.672,0.686,0.882,1.176c0.21,0.49,0.315,1.092,0.315,1.806c0,0.812-0.189,1.509-0.567,2.089
		c-0.378,0.581-0.945,0.977-1.701,1.187v0.042c0.84,0.112,1.505,0.469,1.995,1.071c0.49,0.603,0.735,1.407,0.735,2.415
		c0,0.588-0.077,1.148-0.231,1.68c-0.154,0.532-0.417,0.998-0.788,1.396s-0.854,0.718-1.449,0.956
		c-0.595,0.238-1.333,0.357-2.216,0.357h-5.103V238.783z M114.091,244.937h0.861c0.84,0,1.452-0.15,1.837-0.452
		c0.385-0.301,0.578-0.809,0.578-1.522s-0.175-1.218-0.525-1.512c-0.35-0.294-0.903-0.441-1.659-0.441h-1.092V244.937z
		 M114.091,251.551h1.176c0.728,0,1.316-0.161,1.764-0.483c0.448-0.322,0.672-0.917,0.672-1.785c0-0.434-0.06-0.794-0.179-1.082
		c-0.119-0.287-0.28-0.518-0.483-0.693c-0.203-0.175-0.444-0.297-0.725-0.368c-0.28-0.07-0.588-0.105-0.924-0.105h-1.302V251.551z"
		/>
	<path fill="#9D9D9C" d="M129.148,243.844c0-1.092-0.13-1.886-0.389-2.383c-0.259-0.497-0.731-0.746-1.417-0.746
		c-0.378,0-0.689,0.102-0.935,0.305s-0.438,0.532-0.577,0.987c-0.14,0.455-0.238,1.05-0.294,1.785
		c-0.056,0.735-0.084,1.635-0.084,2.698c0,1.134,0.039,2.051,0.116,2.751c0.077,0.7,0.196,1.243,0.357,1.627
		c0.161,0.385,0.364,0.645,0.609,0.777c0.245,0.133,0.528,0.199,0.851,0.199c0.266,0,0.515-0.045,0.746-0.136
		c0.231-0.091,0.431-0.273,0.599-0.546c0.168-0.273,0.301-0.658,0.399-1.155c0.098-0.497,0.147-1.151,0.147-1.963h3.024
		c0,0.812-0.063,1.582-0.189,2.31s-0.361,1.369-0.704,1.921c-0.343,0.553-0.826,0.991-1.449,1.313
		c-0.623,0.322-1.432,0.483-2.426,0.483c-1.134,0-2.037-0.192-2.709-0.578c-0.672-0.385-1.187-0.92-1.543-1.606
		c-0.357-0.686-0.588-1.508-0.693-2.467s-0.158-2.005-0.158-3.14c0-1.134,0.053-2.18,0.158-3.14
		c0.105-0.958,0.336-1.781,0.693-2.467c0.357-0.686,0.872-1.221,1.543-1.606c0.672-0.385,1.575-0.578,2.709-0.578
		c1.078,0,1.929,0.175,2.552,0.525c0.623,0.35,1.088,0.795,1.396,1.333c0.308,0.539,0.5,1.121,0.577,1.743
		c0.077,0.623,0.116,1.208,0.116,1.753H129.148z"/>
	<path fill="#9D9D9C" d="M149.349,238.783h1.344v14.994h-1.344V238.783z"/>
	<path fill="#9D9D9C" d="M153.171,242.626h1.134v1.554h0.042c0.322-0.63,0.731-1.088,1.229-1.375c0.497-0.287,1.04-0.43,1.627-0.43
		c0.854,0,1.543,0.234,2.068,0.703c0.525,0.469,0.788,1.229,0.788,2.279v8.421h-1.26v-8.064c0-1.526-0.637-2.289-1.911-2.289
		c-0.756,0-1.354,0.256-1.795,0.767c-0.441,0.511-0.662,1.208-0.662,2.089v7.497h-1.26V242.626z"/>
	<path fill="#9D9D9C" d="M164.259,248.233c-0.798-0.308-1.354-0.686-1.669-1.134c-0.315-0.448-0.473-0.952-0.473-1.512
		c0-0.574,0.084-1.064,0.252-1.47c0.168-0.406,0.399-0.738,0.693-0.998c0.294-0.259,0.644-0.448,1.05-0.567
		c0.406-0.119,0.847-0.178,1.323-0.178c1.05,0,1.823,0.262,2.32,0.787c0.497,0.525,0.746,1.299,0.746,2.321v0.315h-1.26v-0.315
		c0-0.728-0.157-1.253-0.472-1.575c-0.315-0.322-0.767-0.483-1.354-0.483c-0.756,0-1.285,0.175-1.586,0.525
		c-0.301,0.35-0.451,0.805-0.451,1.365c0,0.392,0.094,0.742,0.283,1.05c0.189,0.308,0.599,0.581,1.229,0.819l1.827,0.693
		c0.756,0.28,1.292,0.665,1.606,1.155c0.315,0.49,0.473,1.05,0.473,1.68c0,0.476-0.07,0.917-0.21,1.323
		c-0.14,0.406-0.35,0.756-0.63,1.05c-0.28,0.294-0.637,0.525-1.071,0.693s-0.945,0.252-1.533,0.252
		c-1.148,0-2.006-0.263-2.573-0.788s-0.851-1.417-0.851-2.677v-0.357h1.26v0.294c0,1.652,0.714,2.478,2.142,2.478
		c0.672,0,1.208-0.175,1.606-0.525c0.399-0.35,0.598-0.84,0.598-1.47c0-0.49-0.112-0.899-0.336-1.229
		c-0.224-0.329-0.616-0.605-1.176-0.83L164.259,248.233z"/>
	<path fill="#9D9D9C" d="M171.126,243.676h-1.533v-1.05h1.533v-3.087h1.26v3.087h1.974v1.05h-1.974v8.001
		c0,0.448,0.098,0.756,0.294,0.924c0.196,0.168,0.497,0.252,0.903,0.252c0.238,0,0.497-0.042,0.777-0.126v1.05
		c-0.154,0.084-0.448,0.126-0.882,0.126c-0.854,0-1.46-0.14-1.817-0.42c-0.357-0.28-0.535-0.791-0.535-1.533V243.676z"/>
	<path fill="#9D9D9C" d="M175.809,238.783h1.26v2.142h-1.26V238.783z M175.809,242.626h1.26v11.151h-1.26V242.626z"/>
	<path fill="#9D9D9C" d="M180.051,243.676h-1.533v-1.05h1.533v-3.087h1.26v3.087h1.974v1.05h-1.974v8.001
		c0,0.448,0.098,0.756,0.294,0.924c0.196,0.168,0.497,0.252,0.903,0.252c0.238,0,0.497-0.042,0.777-0.126v1.05
		c-0.154,0.084-0.448,0.126-0.882,0.126c-0.854,0-1.46-0.14-1.817-0.42c-0.357-0.28-0.535-0.791-0.535-1.533V243.676z"/>
	<path fill="#9D9D9C" d="M184.649,242.626h1.26v7.854c0,0.924,0.154,1.572,0.462,1.942c0.308,0.371,0.798,0.557,1.47,0.557
		c0.714,0,1.298-0.255,1.753-0.767c0.455-0.511,0.683-1.208,0.683-2.089v-7.497h1.26v11.151h-1.134v-1.554h-0.042
		c-0.322,0.63-0.732,1.089-1.229,1.375c-0.497,0.287-1.04,0.431-1.627,0.431c-0.854,0-1.544-0.234-2.069-0.704
		c-0.525-0.469-0.788-1.229-0.788-2.278V242.626z"/>
	<path fill="#9D9D9C" d="M194.436,243.676h-1.533v-1.05h1.533v-3.087h1.26v3.087h1.974v1.05h-1.974v8.001
		c0,0.448,0.098,0.756,0.294,0.924c0.196,0.168,0.497,0.252,0.903,0.252c0.238,0,0.497-0.042,0.777-0.126v1.05
		c-0.154,0.084-0.448,0.126-0.882,0.126c-0.854,0-1.46-0.14-1.817-0.42c-0.357-0.28-0.535-0.791-0.535-1.533V243.676z"/>
	<path fill="#9D9D9C" d="M205.901,250.082c-0.098,1.19-0.458,2.146-1.082,2.866c-0.623,0.721-1.459,1.082-2.509,1.082
		c-0.588,0-1.113-0.108-1.575-0.326c-0.462-0.217-0.854-0.556-1.176-1.018c-0.322-0.462-0.567-1.064-0.735-1.806
		c-0.168-0.742-0.252-1.638-0.252-2.688c0-1.96,0.333-3.419,0.998-4.378s1.613-1.438,2.846-1.438c1.231,0,2.138,0.438,2.719,1.313
		s0.872,2.244,0.872,4.105v0.462h-6.09v0.525c0,0.798,0.066,1.467,0.199,2.005c0.133,0.539,0.308,0.974,0.525,1.302
		c0.217,0.329,0.469,0.56,0.756,0.693c0.287,0.133,0.584,0.2,0.893,0.2c1.357,0,2.142-0.966,2.352-2.898H205.901z M204.663,247.204
		c-0.028-1.386-0.238-2.362-0.63-2.929s-0.973-0.851-1.743-0.851c-0.784,0-1.373,0.284-1.764,0.851
		c-0.392,0.567-0.595,1.543-0.609,2.929H204.663z"/>
	<path fill="#9D9D9C" d="M213.482,243.676h-1.533v-1.05h1.533v-1.323c0-0.378,0.028-0.731,0.084-1.061
		c0.056-0.329,0.168-0.616,0.336-0.861c0.168-0.245,0.413-0.434,0.735-0.567c0.322-0.133,0.749-0.2,1.281-0.2
		c0.196,0,0.35,0.004,0.462,0.011c0.112,0.007,0.224,0.024,0.336,0.052v1.05c-0.196-0.042-0.399-0.063-0.609-0.063
		c-0.462,0-0.805,0.112-1.029,0.336s-0.336,0.658-0.336,1.302v1.323h1.974v1.05h-1.974v10.101h-1.26V243.676z"/>
	<path fill="#9D9D9C" d="M217.577,248.191c0-1.96,0.333-3.419,0.998-4.378s1.613-1.438,2.846-1.438c1.231,0,2.18,0.479,2.845,1.438
		s0.998,2.418,0.998,4.378c0,1.974-0.333,3.44-0.998,4.399s-1.614,1.438-2.845,1.438c-1.232,0-2.181-0.479-2.846-1.438
		S217.577,250.166,217.577,248.191z M218.921,248.191c0,0.896,0.063,1.648,0.189,2.257s0.301,1.103,0.525,1.48
		c0.224,0.378,0.486,0.648,0.788,0.809c0.301,0.161,0.633,0.242,0.998,0.242c0.35,0,0.679-0.081,0.987-0.242
		c0.308-0.161,0.574-0.431,0.798-0.809s0.399-0.872,0.525-1.48s0.189-1.361,0.189-2.257c0-0.882-0.063-1.627-0.189-2.236
		c-0.126-0.609-0.301-1.103-0.525-1.481c-0.224-0.378-0.49-0.647-0.798-0.808c-0.308-0.161-0.637-0.242-0.987-0.242
		c-0.364,0-0.697,0.081-0.998,0.242c-0.301,0.161-0.564,0.43-0.788,0.808c-0.224,0.378-0.399,0.872-0.525,1.481
		C218.984,246.564,218.921,247.31,218.921,248.191z"/>
	<path fill="#9D9D9C" d="M227.111,242.626h1.26v1.743h0.042c0.238-0.63,0.599-1.12,1.082-1.47c0.483-0.35,1.061-0.525,1.732-0.525
		c0.14,0,0.287,0.021,0.441,0.063v1.26c-0.21-0.042-0.413-0.063-0.609-0.063c-0.35,0-0.686,0.063-1.008,0.189
		c-0.322,0.126-0.609,0.322-0.861,0.588c-0.252,0.266-0.451,0.595-0.598,0.987c-0.147,0.392-0.221,0.861-0.221,1.407v6.972h-1.26
		V242.626z"/>
	<path fill="#9D9D9C" d="M237.947,238.783h7.434v1.134h-6.09v5.46h5.691v1.134h-5.691v6.132h6.279v1.134h-7.623V238.783z"/>
	<path fill="#9D9D9C" d="M247.313,242.626h1.134v1.554h0.042c0.322-0.63,0.731-1.088,1.229-1.375c0.497-0.287,1.04-0.43,1.627-0.43
		c0.854,0,1.543,0.234,2.068,0.703c0.525,0.469,0.788,1.229,0.788,2.279v8.421h-1.26v-8.064c0-1.526-0.637-2.289-1.911-2.289
		c-0.756,0-1.354,0.256-1.795,0.767c-0.441,0.511-0.662,1.208-0.662,2.089v7.497h-1.26V242.626z"/>
	<path fill="#9D9D9C" d="M263.503,250.082c-0.098,1.19-0.458,2.146-1.082,2.866c-0.623,0.721-1.459,1.082-2.509,1.082
		c-0.588,0-1.113-0.108-1.575-0.326c-0.462-0.217-0.854-0.556-1.176-1.018c-0.322-0.462-0.567-1.064-0.735-1.806
		c-0.168-0.742-0.252-1.638-0.252-2.688c0-1.96,0.333-3.419,0.998-4.378s1.613-1.438,2.846-1.438c1.231,0,2.138,0.438,2.719,1.313
		s0.872,2.244,0.872,4.105v0.462h-6.09v0.525c0,0.798,0.066,1.467,0.199,2.005c0.133,0.539,0.308,0.974,0.525,1.302
		c0.217,0.329,0.469,0.56,0.756,0.693c0.287,0.133,0.584,0.2,0.893,0.2c1.357,0,2.142-0.966,2.352-2.898H263.503z M262.265,247.204
		c-0.028-1.386-0.238-2.362-0.63-2.929s-0.973-0.851-1.743-0.851c-0.784,0-1.373,0.284-1.764,0.851
		c-0.392,0.567-0.595,1.543-0.609,2.929H262.265z"/>
	<path fill="#9D9D9C" d="M265.582,242.626h1.26v1.743h0.042c0.238-0.63,0.599-1.12,1.082-1.47c0.483-0.35,1.061-0.525,1.732-0.525
		c0.14,0,0.287,0.021,0.441,0.063v1.26c-0.21-0.042-0.413-0.063-0.609-0.063c-0.35,0-0.686,0.063-1.008,0.189
		c-0.322,0.126-0.609,0.322-0.861,0.588c-0.252,0.266-0.451,0.595-0.598,0.987c-0.147,0.392-0.221,0.861-0.221,1.407v6.972h-1.26
		V242.626z"/>
	<path fill="#9D9D9C" d="M277.174,242.626h1.134v10.353c0,1.568-0.291,2.737-0.872,3.507s-1.509,1.155-2.782,1.155
		c-1.092,0-1.915-0.255-2.468-0.766c-0.553-0.511-0.836-1.166-0.851-1.964h1.26c0,0.532,0.21,0.945,0.63,1.239
		s0.91,0.441,1.47,0.441c1.568,0,2.352-1.015,2.352-3.045v-1.764h-0.042c-0.196,0.686-0.532,1.19-1.008,1.512
		c-0.476,0.322-1.008,0.483-1.596,0.483c-0.434,0-0.858-0.081-1.271-0.242c-0.413-0.161-0.781-0.451-1.103-0.871
		c-0.322-0.42-0.581-0.991-0.777-1.712c-0.196-0.721-0.294-1.641-0.294-2.761c0-1.946,0.287-3.402,0.861-4.368
		c0.574-0.966,1.477-1.449,2.709-1.449c0.63,0,1.172,0.171,1.627,0.514c0.455,0.343,0.78,0.83,0.977,1.459h0.042V242.626z
		 M272.302,248.065c0,0.896,0.052,1.642,0.157,2.236c0.105,0.595,0.259,1.071,0.462,1.428c0.203,0.357,0.451,0.612,0.745,0.767
		c0.294,0.154,0.63,0.231,1.008,0.231s0.714-0.077,1.008-0.231c0.294-0.154,0.542-0.41,0.746-0.767
		c0.203-0.357,0.357-0.833,0.462-1.428c0.105-0.595,0.158-1.34,0.158-2.236c0-0.882-0.053-1.621-0.158-2.216
		c-0.105-0.595-0.259-1.071-0.462-1.428c-0.203-0.357-0.452-0.612-0.746-0.767c-0.294-0.154-0.63-0.231-1.008-0.231
		s-0.714,0.077-1.008,0.231c-0.294,0.154-0.542,0.41-0.745,0.767c-0.203,0.357-0.357,0.833-0.462,1.428
		C272.354,246.445,272.302,247.183,272.302,248.065z"/>
	<path fill="#9D9D9C" d="M279.757,242.626h1.344l2.499,9.66h0.042l2.247-9.66h1.344l-3.255,12.054
		c-0.154,0.546-0.315,0.998-0.483,1.354c-0.168,0.357-0.364,0.644-0.588,0.861c-0.224,0.217-0.486,0.367-0.788,0.451
		c-0.301,0.084-0.668,0.126-1.102,0.126c-0.168,0-0.319-0.003-0.452-0.01c-0.133-0.007-0.263-0.018-0.389-0.032v-1.05
		c0.14,0.014,0.276,0.024,0.41,0.032c0.133,0.007,0.27,0.01,0.41,0.01c0.392,0,0.721-0.102,0.987-0.305
		c0.266-0.203,0.49-0.598,0.672-1.187l0.315-1.05L279.757,242.626z"/>
	<path fill="#9D9D9C" d="M293.595,238.783h7.434v1.134h-6.09v5.46h5.691v1.134h-5.691v6.132h6.279v1.134h-7.623V238.783z"/>
	<path fill="#9D9D9C" d="M303.423,243.676h-1.533v-1.05h1.533v-1.323c0-0.378,0.028-0.731,0.084-1.061
		c0.056-0.329,0.168-0.616,0.336-0.861c0.168-0.245,0.413-0.434,0.735-0.567c0.322-0.133,0.749-0.2,1.281-0.2
		c0.196,0,0.35,0.004,0.462,0.011c0.112,0.007,0.224,0.024,0.336,0.052v1.05c-0.196-0.042-0.399-0.063-0.609-0.063
		c-0.462,0-0.805,0.112-1.029,0.336s-0.336,0.658-0.336,1.302v1.323h1.974v1.05h-1.974v10.101h-1.26V243.676z"/>
	<path fill="#9D9D9C" d="M308.484,243.676h-1.533v-1.05h1.533v-1.323c0-0.378,0.028-0.731,0.084-1.061
		c0.056-0.329,0.168-0.616,0.336-0.861c0.168-0.245,0.413-0.434,0.735-0.567c0.322-0.133,0.749-0.2,1.281-0.2
		c0.196,0,0.35,0.004,0.462,0.011c0.112,0.007,0.224,0.024,0.336,0.052v1.05c-0.196-0.042-0.399-0.063-0.609-0.063
		c-0.462,0-0.805,0.112-1.029,0.336s-0.336,0.658-0.336,1.302v1.323h1.974v1.05h-1.974v10.101h-1.26V243.676z M313.188,238.783h1.26
		v2.142h-1.26V238.783z M313.188,242.626h1.26v11.151h-1.26V242.626z"/>
	<path fill="#9D9D9C" d="M323.667,250.082c-0.098,1.19-0.452,2.146-1.061,2.866c-0.609,0.721-1.438,1.082-2.488,1.082
		c-0.588,0-1.113-0.108-1.575-0.326c-0.462-0.217-0.854-0.556-1.176-1.018c-0.322-0.462-0.567-1.064-0.735-1.806
		c-0.168-0.742-0.252-1.638-0.252-2.688c0-1.96,0.333-3.419,0.998-4.378s1.613-1.438,2.846-1.438c1.05,0,1.869,0.308,2.457,0.924
		c0.588,0.616,0.917,1.498,0.987,2.646h-1.26c-0.07-0.882-0.284-1.522-0.641-1.921s-0.872-0.599-1.543-0.599
		c-0.336,0-0.658,0.063-0.966,0.189s-0.574,0.368-0.798,0.725c-0.224,0.357-0.403,0.847-0.536,1.47
		c-0.133,0.624-0.199,1.425-0.199,2.405c0,1.05,0.07,1.89,0.21,2.52c0.14,0.63,0.318,1.11,0.536,1.438
		c0.217,0.329,0.469,0.546,0.756,0.651c0.287,0.105,0.578,0.158,0.872,0.158c1.315,0,2.086-0.966,2.31-2.898H323.667z"/>
	<path fill="#9D9D9C" d="M325.599,238.783h1.26v2.142h-1.26V238.783z M325.599,242.626h1.26v11.151h-1.26V242.626z"/>
	<path fill="#9D9D9C" d="M336.246,250.082c-0.098,1.19-0.458,2.146-1.082,2.866c-0.623,0.721-1.459,1.082-2.509,1.082
		c-0.588,0-1.113-0.108-1.575-0.326c-0.462-0.217-0.854-0.556-1.176-1.018c-0.322-0.462-0.567-1.064-0.735-1.806
		c-0.168-0.742-0.252-1.638-0.252-2.688c0-1.96,0.333-3.419,0.998-4.378s1.613-1.438,2.846-1.438c1.231,0,2.138,0.438,2.719,1.313
		s0.872,2.244,0.872,4.105v0.462h-6.09v0.525c0,0.798,0.066,1.467,0.199,2.005c0.133,0.539,0.308,0.974,0.525,1.302
		c0.217,0.329,0.469,0.56,0.756,0.693c0.287,0.133,0.584,0.2,0.893,0.2c1.357,0,2.142-0.966,2.352-2.898H336.246z M335.007,247.204
		c-0.028-1.386-0.238-2.362-0.63-2.929s-0.973-0.851-1.743-0.851c-0.784,0-1.373,0.284-1.764,0.851
		c-0.392,0.567-0.595,1.543-0.609,2.929H335.007z"/>
	<path fill="#9D9D9C" d="M338.324,242.626h1.134v1.554h0.042c0.322-0.63,0.731-1.088,1.229-1.375c0.497-0.287,1.04-0.43,1.627-0.43
		c0.854,0,1.543,0.234,2.068,0.703c0.525,0.469,0.788,1.229,0.788,2.279v8.421h-1.26v-8.064c0-1.526-0.637-2.289-1.911-2.289
		c-0.756,0-1.354,0.256-1.795,0.767c-0.441,0.511-0.662,1.208-0.662,2.089v7.497h-1.26V242.626z"/>
	<path fill="#9D9D9C" d="M348.11,243.676h-1.533v-1.05h1.533v-3.087h1.26v3.087h1.974v1.05h-1.974v8.001
		c0,0.448,0.098,0.756,0.294,0.924c0.196,0.168,0.497,0.252,0.903,0.252c0.238,0,0.497-0.042,0.777-0.126v1.05
		c-0.154,0.084-0.448,0.126-0.882,0.126c-0.854,0-1.46-0.14-1.817-0.42c-0.357-0.28-0.535-0.791-0.535-1.533V243.676z"/>
	<path fill="#9D9D9C" d="M149.333,266.983h4.137c0.728,0,1.347,0.091,1.858,0.273c0.511,0.182,0.927,0.438,1.25,0.767
		c0.322,0.329,0.557,0.725,0.704,1.187s0.221,0.973,0.221,1.533c0,0.742-0.196,1.421-0.588,2.037
		c-0.392,0.617-0.966,1.022-1.722,1.218v0.042c0.924,0.182,1.62,0.605,2.089,1.271c0.469,0.665,0.704,1.488,0.704,2.467
		c0,1.316-0.396,2.345-1.187,3.087c-0.791,0.742-1.908,1.113-3.35,1.113h-4.116V266.983z M150.677,273.578h2.121
		c1.176,0,2.03-0.234,2.562-0.704c0.532-0.469,0.798-1.145,0.798-2.026c0-1.008-0.259-1.715-0.777-2.121
		c-0.518-0.406-1.302-0.609-2.352-0.609h-2.352V273.578z M150.677,280.844h2.499c2.31,0,3.465-1.022,3.465-3.066
		c0-2.043-1.155-3.066-3.465-3.066h-2.499V280.844z"/>
	<path fill="#9D9D9C" d="M159.875,270.827h1.26v7.854c0,0.924,0.154,1.572,0.462,1.942c0.308,0.371,0.798,0.557,1.47,0.557
		c0.714,0,1.298-0.255,1.753-0.767c0.455-0.511,0.683-1.208,0.683-2.089v-7.497h1.26v11.151h-1.134v-1.554h-0.042
		c-0.322,0.63-0.732,1.089-1.229,1.375c-0.497,0.287-1.04,0.431-1.627,0.431c-0.854,0-1.544-0.234-2.069-0.704
		c-0.525-0.469-0.788-1.229-0.788-2.278V270.827z"/>
	<path fill="#9D9D9C" d="M169.282,266.983h1.26v2.142h-1.26V266.983z M169.282,270.827h1.26v11.151h-1.26V270.827z"/>
	<path fill="#9D9D9C" d="M173.146,266.983h1.26v14.994h-1.26V266.983z"/>
	<path fill="#9D9D9C" d="M182.806,280.129h-0.042c-0.168,0.644-0.497,1.155-0.987,1.533s-1.071,0.567-1.743,0.567
		c-1.232,0-2.135-0.483-2.709-1.449c-0.574-0.966-0.861-2.429-0.861-4.389c0-1.946,0.287-3.402,0.861-4.368
		c0.574-0.966,1.477-1.449,2.709-1.449c0.714,0,1.292,0.175,1.732,0.525c0.441,0.35,0.731,0.819,0.872,1.407h0.042v-5.523h1.26
		v14.994h-1.134V280.129z M177.808,276.392c0,1.036,0.066,1.869,0.199,2.499c0.133,0.63,0.315,1.113,0.546,1.449
		c0.231,0.336,0.49,0.56,0.777,0.672c0.287,0.112,0.591,0.168,0.914,0.168c0.322,0,0.63-0.056,0.924-0.168
		c0.294-0.112,0.553-0.336,0.777-0.672c0.224-0.336,0.402-0.819,0.536-1.449c0.133-0.63,0.2-1.463,0.2-2.499
		c0-1.022-0.067-1.848-0.2-2.478c-0.133-0.63-0.312-1.113-0.536-1.449c-0.224-0.336-0.483-0.56-0.777-0.672
		c-0.294-0.112-0.602-0.168-0.924-0.168c-0.322,0-0.627,0.056-0.914,0.168c-0.287,0.112-0.546,0.336-0.777,0.672
		c-0.231,0.336-0.413,0.819-0.546,1.449C177.875,274.543,177.808,275.37,177.808,276.392z"/>
	<path fill="#9D9D9C" d="M186.333,266.983h1.26v2.142h-1.26V266.983z M186.333,270.827h1.26v11.151h-1.26V270.827z"/>
	<path fill="#9D9D9C" d="M190.113,270.827h1.134v1.554h0.042c0.322-0.63,0.731-1.088,1.229-1.375c0.497-0.287,1.04-0.43,1.627-0.43
		c0.854,0,1.543,0.234,2.068,0.703c0.525,0.469,0.788,1.229,0.788,2.279v8.421h-1.26v-8.064c0-1.526-0.637-2.289-1.911-2.289
		c-0.756,0-1.354,0.256-1.795,0.767c-0.441,0.511-0.662,1.208-0.662,2.089v7.497h-1.26V270.827z"/>
	<path fill="#9D9D9C" d="M205.191,270.827h1.134v10.353c0,1.568-0.291,2.737-0.872,3.507s-1.509,1.155-2.782,1.155
		c-1.092,0-1.915-0.255-2.468-0.766c-0.553-0.511-0.836-1.166-0.851-1.964h1.26c0,0.532,0.21,0.945,0.63,1.239
		s0.91,0.441,1.47,0.441c1.568,0,2.352-1.015,2.352-3.045v-1.764h-0.042c-0.196,0.686-0.532,1.19-1.008,1.512
		c-0.476,0.322-1.008,0.483-1.596,0.483c-0.434,0-0.858-0.081-1.271-0.242c-0.413-0.161-0.781-0.451-1.103-0.871
		c-0.322-0.42-0.581-0.991-0.777-1.712c-0.196-0.721-0.294-1.641-0.294-2.761c0-1.946,0.287-3.402,0.861-4.368
		c0.574-0.966,1.477-1.449,2.709-1.449c0.63,0,1.172,0.171,1.627,0.514c0.455,0.343,0.78,0.83,0.977,1.459h0.042V270.827z
		 M200.319,276.266c0,0.896,0.052,1.642,0.157,2.236c0.105,0.595,0.259,1.071,0.462,1.428c0.203,0.357,0.451,0.612,0.745,0.767
		c0.294,0.154,0.63,0.231,1.008,0.231s0.714-0.077,1.008-0.231c0.294-0.154,0.542-0.41,0.746-0.767
		c0.203-0.357,0.357-0.833,0.462-1.428c0.105-0.595,0.158-1.34,0.158-2.236c0-0.882-0.053-1.621-0.158-2.216
		c-0.105-0.595-0.259-1.071-0.462-1.428c-0.203-0.357-0.452-0.612-0.746-0.767c-0.294-0.154-0.63-0.231-1.008-0.231
		s-0.714,0.077-1.008,0.231c-0.294,0.154-0.542,0.41-0.745,0.767c-0.203,0.357-0.357,0.833-0.462,1.428
		C200.372,274.645,200.319,275.383,200.319,276.266z"/>
	<path fill="#9D9D9C" d="M210.525,276.434c-0.798-0.308-1.354-0.686-1.669-1.134c-0.315-0.448-0.473-0.952-0.473-1.512
		c0-0.574,0.084-1.064,0.252-1.47c0.168-0.406,0.399-0.738,0.693-0.998c0.294-0.259,0.644-0.448,1.05-0.567
		c0.406-0.119,0.847-0.178,1.323-0.178c1.05,0,1.823,0.262,2.32,0.787c0.497,0.525,0.746,1.299,0.746,2.321v0.315h-1.26v-0.315
		c0-0.728-0.157-1.253-0.472-1.575c-0.315-0.322-0.767-0.483-1.354-0.483c-0.756,0-1.285,0.175-1.586,0.525
		c-0.301,0.35-0.451,0.805-0.451,1.365c0,0.392,0.094,0.742,0.283,1.05c0.189,0.308,0.599,0.581,1.229,0.819l1.827,0.693
		c0.756,0.28,1.292,0.665,1.606,1.155c0.315,0.49,0.473,1.05,0.473,1.68c0,0.476-0.07,0.917-0.21,1.323
		c-0.14,0.406-0.35,0.756-0.63,1.05c-0.28,0.294-0.637,0.525-1.071,0.693s-0.945,0.252-1.533,0.252
		c-1.148,0-2.006-0.263-2.573-0.788s-0.851-1.417-0.851-2.677v-0.357h1.26v0.294c0,1.652,0.714,2.478,2.142,2.478
		c0.672,0,1.208-0.175,1.606-0.525c0.399-0.35,0.598-0.84,0.598-1.47c0-0.49-0.112-0.899-0.336-1.229
		c-0.224-0.329-0.616-0.605-1.176-0.83L210.525,276.434z"/>
	<path fill="#9D9D9C" d="M221.738,274.145c0-1.148,0.276-2.03,0.83-2.646c0.553-0.616,1.424-0.924,2.615-0.924
		c1.147,0,1.96,0.273,2.436,0.819c0.476,0.546,0.714,1.26,0.714,2.142v6.594c0,0.616,0.217,0.924,0.651,0.924h0.357v0.924
		c-0.238,0.084-0.434,0.126-0.588,0.126c-0.49,0-0.882-0.087-1.176-0.263c-0.294-0.175-0.441-0.549-0.441-1.123v-0.378h-0.042
		c-0.126,0.364-0.287,0.669-0.483,0.914c-0.196,0.245-0.42,0.441-0.672,0.588c-0.252,0.147-0.525,0.249-0.819,0.305
		c-0.294,0.056-0.595,0.084-0.903,0.084c-0.98,0-1.698-0.284-2.152-0.851c-0.455-0.567-0.683-1.333-0.683-2.299
		c0-0.756,0.175-1.403,0.525-1.942s0.924-0.92,1.722-1.145l2.373-0.672c0.224-0.056,0.406-0.119,0.546-0.189
		c0.14-0.07,0.249-0.168,0.326-0.294c0.077-0.126,0.129-0.29,0.157-0.493c0.028-0.203,0.042-0.465,0.042-0.788
		c0-0.714-0.175-1.214-0.525-1.501s-0.819-0.431-1.407-0.431c-0.756,0-1.302,0.217-1.638,0.651
		c-0.336,0.434-0.504,1.057-0.504,1.869H221.738z M227.072,275.678h-0.042c-0.07,0.196-0.249,0.35-0.535,0.462
		c-0.287,0.112-0.557,0.203-0.809,0.273l-1.05,0.273c-0.63,0.168-1.106,0.427-1.428,0.777c-0.322,0.35-0.483,0.861-0.483,1.533
		s0.157,1.204,0.472,1.596c0.315,0.393,0.746,0.588,1.292,0.588c0.77,0,1.393-0.273,1.869-0.819
		c0.476-0.546,0.714-1.323,0.714-2.331V275.678z"/>
	<path fill="#9D9D9C" d="M230.915,270.827h1.134v1.554h0.042c0.322-0.63,0.731-1.088,1.229-1.375c0.497-0.287,1.04-0.43,1.627-0.43
		c0.854,0,1.543,0.234,2.068,0.703c0.525,0.469,0.788,1.229,0.788,2.279v8.421h-1.26v-8.064c0-1.526-0.637-2.289-1.911-2.289
		c-0.756,0-1.354,0.256-1.795,0.767c-0.441,0.511-0.662,1.208-0.662,2.089v7.497h-1.26V270.827z"/>
	<path fill="#9D9D9C" d="M246.119,280.129h-0.042c-0.168,0.644-0.497,1.155-0.987,1.533s-1.071,0.567-1.743,0.567
		c-1.232,0-2.135-0.483-2.709-1.449c-0.574-0.966-0.861-2.429-0.861-4.389c0-1.946,0.287-3.402,0.861-4.368
		c0.574-0.966,1.477-1.449,2.709-1.449c0.714,0,1.292,0.175,1.732,0.525c0.441,0.35,0.731,0.819,0.872,1.407h0.042v-5.523h1.26
		v14.994h-1.134V280.129z M241.121,276.392c0,1.036,0.066,1.869,0.199,2.499c0.133,0.63,0.315,1.113,0.546,1.449
		c0.231,0.336,0.49,0.56,0.777,0.672c0.287,0.112,0.591,0.168,0.914,0.168c0.322,0,0.63-0.056,0.924-0.168
		c0.294-0.112,0.553-0.336,0.777-0.672c0.224-0.336,0.402-0.819,0.536-1.449c0.133-0.63,0.2-1.463,0.2-2.499
		c0-1.022-0.067-1.848-0.2-2.478c-0.133-0.63-0.312-1.113-0.536-1.449c-0.224-0.336-0.483-0.56-0.777-0.672
		c-0.294-0.112-0.602-0.168-0.924-0.168c-0.322,0-0.627,0.056-0.914,0.168c-0.287,0.112-0.546,0.336-0.777,0.672
		c-0.231,0.336-0.413,0.819-0.546,1.449C241.188,274.543,241.121,275.37,241.121,276.392z"/>
	<path fill="#9D9D9C" d="M254.644,266.983h1.344v14.994h-1.344V266.983z"/>
	<path fill="#9D9D9C" d="M258.466,270.827h1.134v1.554h0.042c0.322-0.63,0.731-1.088,1.229-1.375c0.497-0.287,1.04-0.43,1.627-0.43
		c0.854,0,1.543,0.234,2.068,0.703c0.525,0.469,0.788,1.229,0.788,2.279v8.421h-1.26v-8.064c0-1.526-0.637-2.289-1.911-2.289
		c-0.756,0-1.354,0.256-1.795,0.767c-0.441,0.511-0.662,1.208-0.662,2.089v7.497h-1.26V270.827z"/>
	<path fill="#9D9D9C" d="M273.67,280.129h-0.042c-0.168,0.644-0.497,1.155-0.987,1.533s-1.071,0.567-1.743,0.567
		c-1.232,0-2.135-0.483-2.709-1.449c-0.574-0.966-0.861-2.429-0.861-4.389c0-1.946,0.287-3.402,0.861-4.368
		c0.574-0.966,1.477-1.449,2.709-1.449c0.714,0,1.292,0.175,1.732,0.525c0.441,0.35,0.731,0.819,0.872,1.407h0.042v-5.523h1.26
		v14.994h-1.134V280.129z M268.672,276.392c0,1.036,0.066,1.869,0.199,2.499c0.133,0.63,0.315,1.113,0.546,1.449
		c0.231,0.336,0.49,0.56,0.777,0.672c0.287,0.112,0.591,0.168,0.914,0.168c0.322,0,0.63-0.056,0.924-0.168
		c0.294-0.112,0.553-0.336,0.777-0.672c0.224-0.336,0.402-0.819,0.536-1.449c0.133-0.63,0.2-1.463,0.2-2.499
		c0-1.022-0.067-1.848-0.2-2.478c-0.133-0.63-0.312-1.113-0.536-1.449c-0.224-0.336-0.483-0.56-0.777-0.672
		c-0.294-0.112-0.602-0.168-0.924-0.168c-0.322,0-0.627,0.056-0.914,0.168c-0.287,0.112-0.546,0.336-0.777,0.672
		c-0.231,0.336-0.413,0.819-0.546,1.449C268.738,274.543,268.672,275.37,268.672,276.392z"/>
	<path fill="#9D9D9C" d="M276.525,276.392c0-1.96,0.333-3.419,0.998-4.378s1.613-1.438,2.846-1.438c1.231,0,2.18,0.479,2.845,1.438
		s0.998,2.418,0.998,4.378c0,1.974-0.333,3.44-0.998,4.399s-1.614,1.438-2.845,1.438c-1.232,0-2.181-0.479-2.846-1.438
		S276.525,278.366,276.525,276.392z M277.87,276.392c0,0.896,0.063,1.648,0.189,2.257s0.301,1.103,0.525,1.48
		c0.224,0.378,0.486,0.648,0.788,0.809c0.301,0.161,0.633,0.242,0.998,0.242c0.35,0,0.679-0.081,0.987-0.242
		c0.308-0.161,0.574-0.431,0.798-0.809s0.399-0.872,0.525-1.48s0.189-1.361,0.189-2.257c0-0.882-0.063-1.627-0.189-2.236
		c-0.126-0.609-0.301-1.103-0.525-1.481c-0.224-0.378-0.49-0.647-0.798-0.808c-0.308-0.161-0.637-0.242-0.987-0.242
		c-0.364,0-0.697,0.081-0.998,0.242c-0.301,0.161-0.564,0.43-0.788,0.808c-0.224,0.378-0.399,0.872-0.525,1.481
		C277.933,274.764,277.87,275.51,277.87,276.392z"/>
	<path fill="#9D9D9C" d="M285.471,276.392c0-1.96,0.333-3.419,0.998-4.378s1.613-1.438,2.846-1.438c1.231,0,2.18,0.479,2.845,1.438
		s0.998,2.418,0.998,4.378c0,1.974-0.333,3.44-0.998,4.399s-1.614,1.438-2.845,1.438c-1.232,0-2.181-0.479-2.846-1.438
		S285.471,278.366,285.471,276.392z M286.815,276.392c0,0.896,0.063,1.648,0.189,2.257s0.301,1.103,0.525,1.48
		c0.224,0.378,0.486,0.648,0.788,0.809c0.301,0.161,0.633,0.242,0.998,0.242c0.35,0,0.679-0.081,0.987-0.242
		c0.308-0.161,0.574-0.431,0.798-0.809s0.399-0.872,0.525-1.48s0.189-1.361,0.189-2.257c0-0.882-0.063-1.627-0.189-2.236
		c-0.126-0.609-0.301-1.103-0.525-1.481c-0.224-0.378-0.49-0.647-0.798-0.808c-0.308-0.161-0.637-0.242-0.987-0.242
		c-0.364,0-0.697,0.081-0.998,0.242c-0.301,0.161-0.564,0.43-0.788,0.808c-0.224,0.378-0.399,0.872-0.525,1.481
		C286.878,274.764,286.815,275.51,286.815,276.392z"/>
	<path fill="#9D9D9C" d="M295.005,270.827h1.26v1.743h0.042c0.238-0.63,0.599-1.12,1.082-1.47c0.483-0.35,1.061-0.525,1.732-0.525
		c0.14,0,0.287,0.021,0.441,0.063v1.26c-0.21-0.042-0.413-0.063-0.609-0.063c-0.35,0-0.686,0.063-1.008,0.189
		c-0.322,0.126-0.609,0.322-0.861,0.588c-0.252,0.266-0.451,0.595-0.598,0.987c-0.147,0.392-0.221,0.861-0.221,1.407v6.972h-1.26
		V270.827z"/>
	<path fill="#9D9D9C" d="M314.955,276.896c-0.098,1.736-0.525,3.059-1.281,3.969c-0.756,0.91-1.813,1.365-3.171,1.365
		c-1.54,0-2.723-0.62-3.549-1.858c-0.826-1.239-1.239-3.203-1.239-5.891s0.413-4.651,1.239-5.891
		c0.826-1.239,2.009-1.858,3.549-1.858c0.756,0,1.407,0.126,1.953,0.378s0.994,0.588,1.344,1.008s0.605,0.91,0.767,1.47
		c0.161,0.56,0.242,1.148,0.242,1.764h-1.344c0-1.022-0.252-1.858-0.756-2.51c-0.504-0.651-1.239-0.976-2.205-0.976
		c-0.532,0-1.012,0.115-1.438,0.346c-0.427,0.231-0.788,0.609-1.082,1.134c-0.294,0.525-0.521,1.208-0.682,2.047
		c-0.161,0.84-0.242,1.869-0.242,3.087c0,1.218,0.081,2.247,0.242,3.087c0.161,0.84,0.388,1.522,0.682,2.048
		c0.294,0.525,0.654,0.903,1.082,1.134c0.427,0.231,0.906,0.347,1.438,0.347c0.966,0,1.708-0.371,2.226-1.113
		c0.518-0.742,0.812-1.771,0.882-3.087H314.955z"/>
	<path fill="#9D9D9C" d="M316.865,266.983h1.26v14.994h-1.26V266.983z"/>
	<path fill="#9D9D9C" d="M320.729,266.983h1.26v2.142h-1.26V266.983z M320.729,270.827h1.26v11.151h-1.26V270.827z"/>
	<path fill="#9D9D9C" d="M324.593,270.827h1.134v1.554h0.042c0.294-0.63,0.683-1.088,1.166-1.375c0.483-0.287,1.04-0.43,1.669-0.43
		c0.672,0,1.208,0.178,1.606,0.535s0.641,0.83,0.725,1.417h0.042c0.252-0.63,0.609-1.113,1.071-1.449
		c0.462-0.336,1.05-0.504,1.764-0.504c0.798,0,1.428,0.228,1.89,0.682c0.462,0.455,0.693,1.187,0.693,2.195v8.526h-1.26v-8.337
		c0-1.344-0.582-2.016-1.743-2.016c-0.322,0-0.62,0.066-0.893,0.2c-0.273,0.133-0.511,0.325-0.714,0.577
		c-0.203,0.252-0.364,0.553-0.483,0.903c-0.119,0.35-0.179,0.742-0.179,1.176v7.497h-1.26v-8.337c0-1.344-0.582-2.016-1.743-2.016
		c-0.322,0-0.62,0.066-0.893,0.2c-0.273,0.133-0.511,0.325-0.714,0.577c-0.203,0.252-0.364,0.553-0.483,0.903
		c-0.119,0.35-0.179,0.742-0.179,1.176v7.497h-1.26V270.827z"/>
	<path fill="#9D9D9C" d="M338.684,274.145c0-1.148,0.276-2.03,0.83-2.646c0.553-0.616,1.424-0.924,2.615-0.924
		c1.147,0,1.96,0.273,2.436,0.819c0.476,0.546,0.714,1.26,0.714,2.142v6.594c0,0.616,0.217,0.924,0.651,0.924h0.357v0.924
		c-0.238,0.084-0.434,0.126-0.588,0.126c-0.49,0-0.882-0.087-1.176-0.263c-0.294-0.175-0.441-0.549-0.441-1.123v-0.378h-0.042
		c-0.126,0.364-0.287,0.669-0.483,0.914c-0.196,0.245-0.42,0.441-0.672,0.588c-0.252,0.147-0.525,0.249-0.819,0.305
		c-0.294,0.056-0.595,0.084-0.903,0.084c-0.98,0-1.698-0.284-2.152-0.851c-0.455-0.567-0.683-1.333-0.683-2.299
		c0-0.756,0.175-1.403,0.525-1.942s0.924-0.92,1.722-1.145l2.373-0.672c0.224-0.056,0.406-0.119,0.546-0.189
		c0.14-0.07,0.249-0.168,0.326-0.294c0.077-0.126,0.129-0.29,0.157-0.493c0.028-0.203,0.042-0.465,0.042-0.788
		c0-0.714-0.175-1.214-0.525-1.501s-0.819-0.431-1.407-0.431c-0.756,0-1.302,0.217-1.638,0.651
		c-0.336,0.434-0.504,1.057-0.504,1.869H338.684z M344.018,275.678h-0.042c-0.07,0.196-0.249,0.35-0.535,0.462
		c-0.287,0.112-0.557,0.203-0.809,0.273l-1.05,0.273c-0.63,0.168-1.106,0.427-1.428,0.777c-0.322,0.35-0.483,0.861-0.483,1.533
		s0.157,1.204,0.472,1.596c0.315,0.393,0.746,0.588,1.292,0.588c0.77,0,1.393-0.273,1.869-0.819
		c0.476-0.546,0.714-1.323,0.714-2.331V275.678z"/>
	<path fill="#9D9D9C" d="M348.407,271.876h-1.533v-1.05h1.533v-3.087h1.26v3.087h1.974v1.05h-1.974v8.001
		c0,0.448,0.098,0.756,0.294,0.924c0.196,0.168,0.497,0.252,0.903,0.252c0.238,0,0.497-0.042,0.777-0.126v1.05
		c-0.154,0.084-0.448,0.126-0.882,0.126c-0.854,0-1.46-0.14-1.817-0.42c-0.357-0.28-0.535-0.791-0.535-1.533V271.876z"/>
	<path fill="#9D9D9C" d="M359.873,278.282c-0.098,1.19-0.458,2.146-1.082,2.866c-0.623,0.721-1.459,1.082-2.509,1.082
		c-0.588,0-1.113-0.108-1.575-0.326c-0.462-0.217-0.854-0.556-1.176-1.018c-0.322-0.462-0.567-1.064-0.735-1.806
		c-0.168-0.742-0.252-1.638-0.252-2.688c0-1.96,0.333-3.419,0.998-4.378s1.613-1.438,2.846-1.438c1.231,0,2.138,0.438,2.719,1.313
		s0.872,2.244,0.872,4.105v0.462h-6.09v0.525c0,0.798,0.066,1.467,0.199,2.005c0.133,0.539,0.308,0.974,0.525,1.302
		c0.217,0.329,0.469,0.56,0.756,0.693c0.287,0.133,0.584,0.2,0.893,0.2c1.357,0,2.142-0.966,2.352-2.898H359.873z M358.634,275.404
		c-0.028-1.386-0.238-2.362-0.63-2.929s-0.973-0.851-1.743-0.851c-0.784,0-1.373,0.284-1.764,0.851
		c-0.392,0.567-0.595,1.543-0.609,2.929H358.634z"/>
</g>
<rect x="140.292" y="238.575" width="1" height="15.529"/>
</svg>
